<svg width="20" height="18" viewBox="0 0 20 18" fill="none" xmlns="http://www.w3.org/2000/svg">
<path d="M7.47 1C7.47 0.734784 7.36464 0.48043 7.17711 0.292893C6.98957 0.105357 6.73522 0 6.47 0C6.20478 0 5.95043 0.105357 5.76289 0.292893C5.57536 0.48043 5.47 0.734784 5.47 1V2.079H4.46C3.6553 2.0788 2.86963 2.32376 2.20764 2.78126C1.54564 3.23876 1.03873 3.88708 0.754421 4.63989C0.470111 5.39269 0.421892 6.21424 0.616187 6.99514C0.810481 7.77603 1.23807 8.4792 1.842 9.011C1.41999 9.38626 1.08223 9.84662 0.850922 10.3618C0.619619 10.877 0.500022 11.4353 0.5 12V12.152C0.5 12.6773 0.603463 13.1974 0.804482 13.6827C1.0055 14.168 1.30014 14.609 1.67157 14.9804C2.42172 15.7306 3.43913 16.152 4.5 16.152H5.5V17C5.5 17.2652 5.60536 17.5196 5.79289 17.7071C5.98043 17.8946 6.23478 18 6.5 18C6.76522 18 7.01957 17.8946 7.20711 17.7071C7.39464 17.5196 7.5 17.2652 7.5 17V16.152C7.5 15.6216 7.28929 15.1129 6.91421 14.7378C6.53914 14.3627 6.03043 14.152 5.5 14.152H4.5C3.96957 14.152 3.46086 13.9413 3.08579 13.5662C2.71071 13.1911 2.5 12.6824 2.5 12.152V12C2.5 11.4696 2.71071 10.9609 3.08579 10.5858C3.46086 10.2107 3.96957 10 4.5 10H7.5C7.76522 10 8.01957 9.89464 8.20711 9.70711C8.39464 9.51957 8.5 9.26522 8.5 9C8.5 8.73478 8.39464 8.48043 8.20711 8.29289C8.01957 8.10536 7.76522 8 7.5 8H4.46C3.94004 8 3.44138 7.79345 3.07372 7.42578C2.70605 7.05812 2.4995 6.55946 2.4995 6.0395C2.4995 5.51954 2.70605 5.02088 3.07372 4.65322C3.44138 4.28555 3.94004 4.079 4.46 4.079H5.47C6.00043 4.079 6.50914 3.86829 6.88421 3.49321C7.25929 3.11814 7.47 2.60943 7.47 2.079V1Z" fill="black"/>
<path d="M9.5 0C9.76522 0 10.0196 0.105357 10.2071 0.292893C10.3946 0.48043 10.5 0.734784 10.5 1V3C10.5 3.893 10.207 4.718 9.712 5.384C10.406 5.71194 10.991 6.23263 11.3971 6.88393C11.8033 7.53523 12.0135 8.28964 12.0026 9.05714C11.9918 9.82463 11.7603 10.5728 11.3359 11.2123C10.9115 11.8519 10.312 12.3558 9.609 12.664C10.149 13.346 10.472 14.209 10.471 15.148L10.469 16.996C10.4688 17.1273 10.4427 17.2573 10.3923 17.3786C10.3419 17.4998 10.268 17.6099 10.175 17.7027C10.082 17.7954 9.9717 17.8689 9.8503 17.919C9.7289 17.969 9.59882 17.9947 9.4675 17.9945C9.33618 17.9943 9.20618 17.9682 9.08493 17.9178C8.96368 17.8674 8.85355 17.7935 8.76083 17.7005C8.66811 17.6075 8.59462 17.4972 8.54455 17.3758C8.49447 17.2544 8.4688 17.1243 8.469 16.993L8.471 15.145C8.47126 14.8819 8.41963 14.6214 8.31905 14.3783C8.21847 14.1352 8.07092 13.9144 7.88486 13.7284C7.6988 13.5425 7.47788 13.395 7.23475 13.2946C6.99162 13.1941 6.73106 13.1426 6.468 13.143L5.51 13.144C5.24496 13.144 4.99075 13.0388 4.80325 12.8515C4.61574 12.6641 4.51027 12.41 4.51 12.145V12.136C4.49059 11.9946 4.50168 11.8506 4.54252 11.7139C4.58337 11.5771 4.65303 11.4506 4.74682 11.343C4.84061 11.2354 4.95635 11.1491 5.08626 11.0899C5.21617 11.0308 5.35725 11.0001 5.5 11H8C8.53043 11 9.03914 10.7893 9.41421 10.4142C9.78929 10.0391 10 9.53043 10 9C10 8.46957 9.78929 7.96086 9.41421 7.58579C9.03914 7.21071 8.53043 7 8 7H5.5C5.23478 7 4.98043 6.89464 4.79289 6.70711C4.60536 6.51957 4.5 6.26522 4.5 6C4.5 5.73478 4.60536 5.48043 4.79289 5.29289C4.98043 5.10536 5.23478 5 5.5 5H6.5C7.03043 5 7.53914 4.78929 7.91421 4.41421C8.28929 4.03914 8.5 3.53043 8.5 3V1C8.5 0.734784 8.60536 0.48043 8.79289 0.292893C8.98043 0.105357 9.23478 0 9.5 0ZM12.123 1.553C12.0349 1.60092 11.9573 1.66604 11.8948 1.74449C11.8322 1.82294 11.7861 1.91314 11.7591 2.00973C11.732 2.10633 11.7247 2.20737 11.7374 2.30688C11.7501 2.40638 11.7826 2.50232 11.8331 2.58902C11.8835 2.67573 11.9508 2.75143 12.031 2.81166C12.1113 2.87188 12.2027 2.9154 12.3001 2.93964C12.3974 2.96388 12.4986 2.96835 12.5977 2.95278C12.6968 2.93721 12.7918 2.90192 12.877 2.849L14.291 2.026L14.541 3.623C14.5649 3.77561 14.6258 3.92008 14.7181 4.04389C14.8105 4.1677 14.9317 4.26711 15.0712 4.3335C15.2107 4.3999 15.3643 4.43127 15.5186 4.42491C15.673 4.41855 15.8235 4.37465 15.957 4.297L18.067 3.069C18.1551 3.02108 18.2327 2.95596 18.2952 2.87751C18.3578 2.79906 18.4039 2.70886 18.4309 2.61227C18.458 2.51567 18.4653 2.41463 18.4526 2.31512C18.4399 2.21562 18.4074 2.11968 18.3569 2.03298C18.3065 1.94627 18.2392 1.87057 18.159 1.81034C18.0787 1.75012 17.9873 1.7066 17.8899 1.68236C17.7926 1.65812 17.6914 1.65365 17.5923 1.66922C17.4932 1.68479 17.3982 1.72008 17.313 1.773L15.899 2.596L15.649 0.999C15.6252 0.846299 15.5645 0.701713 15.4721 0.577783C15.3798 0.453852 15.2586 0.354319 15.1191 0.287817C14.9796 0.221316 14.826 0.189853 14.6716 0.196158C14.5172 0.202463 14.3666 0.246346 14.233 0.324L12.123 1.553ZM13.256 7.436C13.2434 7.33829 13.2501 7.23906 13.2758 7.14396C13.3016 7.04886 13.3458 6.95976 13.406 6.88175C13.4662 6.80375 13.5411 6.73836 13.6266 6.68933C13.712 6.6403 13.8063 6.60859 13.904 6.596L16.233 6.296C16.3853 6.27639 16.5401 6.294 16.6841 6.34729C16.8281 6.40059 16.957 6.488 17.0598 6.60204C17.1626 6.71607 17.2363 6.85333 17.2745 7.00205C17.3126 7.15078 17.3142 7.30654 17.279 7.456L16.906 9.033L18.446 8.834C18.6433 8.80854 18.8427 8.86251 19.0002 8.98403C19.1577 9.10555 19.2605 9.28468 19.286 9.482C19.3115 9.67932 19.2575 9.87867 19.136 10.0362C19.0144 10.1937 18.8353 10.2965 18.638 10.322L16.31 10.622C16.1577 10.6416 16.0029 10.624 15.8589 10.5707C15.7149 10.5174 15.586 10.43 15.4832 10.316C15.3804 10.2019 15.3067 10.0647 15.2685 9.91595C15.2304 9.76722 15.2288 9.61146 15.264 9.462L15.636 7.885L14.096 8.084C13.9983 8.09663 13.8991 8.08988 13.804 8.06415C13.7089 8.03842 13.6198 7.9942 13.5418 7.93402C13.4637 7.87385 13.3984 7.79889 13.3493 7.71344C13.3003 7.62799 13.2686 7.53371 13.256 7.436ZM13.337 11.904C13.2409 11.8821 13.1415 11.8793 13.0444 11.8958C12.9472 11.9123 12.8543 11.9477 12.7708 12.0002C12.6874 12.0526 12.6151 12.1209 12.5581 12.2013C12.5011 12.2816 12.4604 12.3724 12.4385 12.4685C12.4166 12.5646 12.4138 12.664 12.4303 12.7611C12.4468 12.8583 12.4822 12.9512 12.5347 13.0347C12.5871 13.1181 12.6554 13.1904 12.7358 13.2474C12.8161 13.3044 12.9069 13.3451 13.003 13.367L14.898 13.798L13.94 15.085C13.8457 15.2117 13.7845 15.36 13.762 15.5163C13.7394 15.6727 13.7562 15.8322 13.8108 15.9804C13.8654 16.1286 13.9561 16.2609 14.0747 16.3652C14.1933 16.4696 14.336 16.5427 14.49 16.578L17.208 17.198C17.402 17.2422 17.6056 17.2074 17.774 17.1015C17.9424 16.9955 18.0618 16.827 18.106 16.633C18.1502 16.439 18.1154 16.2354 18.0095 16.067C17.9035 15.8986 17.735 15.7792 17.541 15.735L15.647 15.303L16.605 14.016C16.6993 13.8892 16.7604 13.7409 16.7829 13.5845C16.8054 13.4281 16.7886 13.2685 16.7339 13.1203C16.6792 12.972 16.5883 12.8398 16.4696 12.7355C16.3509 12.6312 16.2081 12.5582 16.054 12.523L13.337 11.904Z" fill="black"/>
</svg>
