<svg width="25" height="24" viewBox="0 0 25 24" fill="none" xmlns="http://www.w3.org/2000/svg">
<path d="M10.47 4C10.47 3.73478 10.3646 3.48043 10.1771 3.29289C9.98957 3.10536 9.73522 3 9.47 3C9.20478 3 8.95043 3.10536 8.76289 3.29289C8.57536 3.48043 8.47 3.73478 8.47 4V5.079H7.46C6.6553 5.0788 5.86963 5.32376 5.20764 5.78126C4.54564 6.23876 4.03873 6.88708 3.75442 7.63989C3.47011 8.39269 3.42189 9.21424 3.61619 9.99514C3.81048 10.776 4.23807 11.4792 4.842 12.011C4.41999 12.3863 4.08223 12.8466 3.85092 13.3618C3.61962 13.877 3.50002 14.4353 3.5 15V15.152C3.5 15.6773 3.60346 16.1974 3.80448 16.6827C4.0055 17.168 4.30014 17.609 4.67157 17.9804C5.42172 18.7306 6.43913 19.152 7.5 19.152H8.5V20C8.5 20.2652 8.60536 20.5196 8.79289 20.7071C8.98043 20.8946 9.23478 21 9.5 21C9.76522 21 10.0196 20.8946 10.2071 20.7071C10.3946 20.5196 10.5 20.2652 10.5 20V19.152C10.5 18.6216 10.2893 18.1129 9.91421 17.7378C9.53914 17.3627 9.03043 17.152 8.5 17.152H7.5C6.96957 17.152 6.46086 16.9413 6.08579 16.5662C5.71071 16.1911 5.5 15.6824 5.5 15.152V15C5.5 14.4696 5.71071 13.9609 6.08579 13.5858C6.46086 13.2107 6.96957 13 7.5 13H10.5C10.7652 13 11.0196 12.8946 11.2071 12.7071C11.3946 12.5196 11.5 12.2652 11.5 12C11.5 11.7348 11.3946 11.4804 11.2071 11.2929C11.0196 11.1054 10.7652 11 10.5 11H7.46C6.94004 11 6.44138 10.7934 6.07372 10.4258C5.70605 10.0581 5.4995 9.55946 5.4995 9.0395C5.4995 8.51954 5.70605 8.02088 6.07372 7.65322C6.44138 7.28555 6.94004 7.079 7.46 7.079H8.47C9.00043 7.079 9.50914 6.86829 9.88421 6.49321C10.2593 6.11814 10.47 5.60943 10.47 5.079V4Z" fill="black"/>
<path d="M12.5 3C12.7652 3 13.0196 3.10536 13.2071 3.29289C13.3946 3.48043 13.5 3.73478 13.5 4V6C13.5 6.893 13.207 7.718 12.712 8.384C13.406 8.71194 13.991 9.23263 14.3971 9.88393C14.8033 10.5352 15.0135 11.2896 15.0026 12.0571C14.9918 12.8246 14.7603 13.5728 14.3359 14.2123C13.9115 14.8519 13.312 15.3558 12.609 15.664C13.149 16.346 13.472 17.209 13.471 18.148L13.469 19.996C13.4688 20.1273 13.4427 20.2573 13.3923 20.3786C13.3419 20.4998 13.268 20.6099 13.175 20.7027C13.082 20.7954 12.9717 20.8689 12.8503 20.919C12.7289 20.969 12.5988 20.9947 12.4675 20.9945C12.3362 20.9943 12.2062 20.9682 12.0849 20.9178C11.9637 20.8674 11.8536 20.7935 11.7608 20.7005C11.6681 20.6075 11.5946 20.4972 11.5445 20.3758C11.4945 20.2544 11.4688 20.1243 11.469 19.993L11.471 18.145C11.4713 17.8819 11.4196 17.6214 11.319 17.3783C11.2185 17.1352 11.0709 16.9144 10.8849 16.7284C10.6988 16.5425 10.4779 16.395 10.2348 16.2946C9.99162 16.1941 9.73106 16.1426 9.468 16.143L8.51 16.144C8.24496 16.144 7.99075 16.0388 7.80325 15.8515C7.61574 15.6641 7.51027 15.41 7.51 15.145V15.136C7.49059 14.9946 7.50168 14.8506 7.54252 14.7139C7.58337 14.5771 7.65303 14.4506 7.74682 14.343C7.84061 14.2354 7.95635 14.1491 8.08626 14.0899C8.21617 14.0308 8.35725 14.0001 8.5 14H11C11.5304 14 12.0391 13.7893 12.4142 13.4142C12.7893 13.0391 13 12.5304 13 12C13 11.4696 12.7893 10.9609 12.4142 10.5858C12.0391 10.2107 11.5304 10 11 10H8.5C8.23478 10 7.98043 9.89464 7.79289 9.70711C7.60536 9.51957 7.5 9.26522 7.5 9C7.5 8.73478 7.60536 8.48043 7.79289 8.29289C7.98043 8.10536 8.23478 8 8.5 8H9.5C10.0304 8 10.5391 7.78929 10.9142 7.41421C11.2893 7.03914 11.5 6.53043 11.5 6V4C11.5 3.73478 11.6054 3.48043 11.7929 3.29289C11.9804 3.10536 12.2348 3 12.5 3ZM15.123 4.553C15.0349 4.60092 14.9573 4.66604 14.8948 4.74449C14.8322 4.82294 14.7861 4.91314 14.7591 5.00973C14.732 5.10633 14.7247 5.20737 14.7374 5.30688C14.7501 5.40638 14.7826 5.50232 14.8331 5.58902C14.8835 5.67573 14.9508 5.75143 15.031 5.81166C15.1113 5.87188 15.2027 5.9154 15.3001 5.93964C15.3974 5.96388 15.4986 5.96835 15.5977 5.95278C15.6968 5.93721 15.7918 5.90192 15.877 5.849L17.291 5.026L17.541 6.623C17.5649 6.77561 17.6258 6.92008 17.7181 7.04389C17.8105 7.1677 17.9317 7.26711 18.0712 7.3335C18.2107 7.3999 18.3643 7.43127 18.5186 7.42491C18.673 7.41855 18.8235 7.37465 18.957 7.297L21.067 6.069C21.1551 6.02108 21.2327 5.95596 21.2952 5.87751C21.3578 5.79906 21.4039 5.70886 21.4309 5.61227C21.458 5.51567 21.4653 5.41463 21.4526 5.31512C21.4399 5.21562 21.4074 5.11968 21.3569 5.03298C21.3065 4.94627 21.2392 4.87057 21.159 4.81034C21.0787 4.75012 20.9873 4.7066 20.8899 4.68236C20.7926 4.65812 20.6914 4.65365 20.5923 4.66922C20.4932 4.68479 20.3982 4.72008 20.313 4.773L18.899 5.596L18.649 3.999C18.6252 3.8463 18.5645 3.70171 18.4721 3.57778C18.3798 3.45385 18.2586 3.35432 18.1191 3.28782C17.9796 3.22132 17.826 3.18985 17.6716 3.19616C17.5172 3.20246 17.3666 3.24635 17.233 3.324L15.123 4.553ZM16.256 10.436C16.2434 10.3383 16.2501 10.2391 16.2758 10.144C16.3016 10.0489 16.3458 9.95976 16.406 9.88175C16.4662 9.80375 16.5411 9.73836 16.6266 9.68933C16.712 9.6403 16.8063 9.60859 16.904 9.596L19.233 9.296C19.3853 9.27639 19.5401 9.294 19.6841 9.34729C19.8281 9.40059 19.957 9.488 20.0598 9.60204C20.1626 9.71607 20.2363 9.85333 20.2745 10.0021C20.3126 10.1508 20.3142 10.3065 20.279 10.456L19.906 12.033L21.446 11.834C21.6433 11.8085 21.8427 11.8625 22.0002 11.984C22.1577 12.1056 22.2605 12.2847 22.286 12.482C22.3115 12.6793 22.2575 12.8787 22.136 13.0362C22.0144 13.1937 21.8353 13.2965 21.638 13.322L19.31 13.622C19.1577 13.6416 19.0029 13.624 18.8589 13.5707C18.7149 13.5174 18.586 13.43 18.4832 13.316C18.3804 13.2019 18.3067 13.0647 18.2685 12.9159C18.2304 12.7672 18.2288 12.6115 18.264 12.462L18.636 10.885L17.096 11.084C16.9983 11.0966 16.8991 11.0899 16.804 11.0642C16.7089 11.0384 16.6198 10.9942 16.5418 10.934C16.4637 10.8738 16.3984 10.7989 16.3493 10.7134C16.3003 10.628 16.2686 10.5337 16.256 10.436ZM16.337 14.904C16.2409 14.8821 16.1415 14.8793 16.0444 14.8958C15.9472 14.9123 15.8543 14.9477 15.7708 15.0002C15.6874 15.0526 15.6151 15.1209 15.5581 15.2013C15.5011 15.2816 15.4604 15.3724 15.4385 15.4685C15.4166 15.5646 15.4138 15.664 15.4303 15.7611C15.4468 15.8583 15.4822 15.9512 15.5347 16.0347C15.5871 16.1181 15.6554 16.1904 15.7358 16.2474C15.8161 16.3044 15.9069 16.3451 16.003 16.367L17.898 16.798L16.94 18.085C16.8457 18.2117 16.7845 18.36 16.762 18.5163C16.7394 18.6727 16.7562 18.8322 16.8108 18.9804C16.8654 19.1286 16.9561 19.2609 17.0747 19.3652C17.1933 19.4696 17.336 19.5427 17.49 19.578L20.208 20.198C20.402 20.2422 20.6056 20.2074 20.774 20.1015C20.9424 19.9955 21.0618 19.827 21.106 19.633C21.1502 19.439 21.1154 19.2354 21.0095 19.067C20.9035 18.8986 20.735 18.7792 20.541 18.735L18.647 18.303L19.605 17.016C19.6993 16.8892 19.7604 16.7409 19.7829 16.5845C19.8054 16.4281 19.7886 16.2685 19.7339 16.1203C19.6792 15.972 19.5883 15.8398 19.4696 15.7355C19.3509 15.6312 19.2081 15.5582 19.054 15.523L16.337 14.904Z" fill="black"/>
</svg>
