<svg width="25" height="24" viewBox="0 0 25 24" fill="none" xmlns="http://www.w3.org/2000/svg">
<path d="M13.483 0.0330211C13.0326 0.0790955 11.7131 0.355541 11.3103 0.493764C10.4625 0.781729 9.5298 1.27703 8.74023 1.85296C7.55851 2.71685 6.63645 3.73049 5.79918 5.10696C5.55542 5.49859 4.97781 6.75987 4.80293 7.27821C4.64926 7.72744 4.3843 8.93689 4.28361 9.63952C4.14583 10.6301 4.23062 12.6631 4.42669 13.0778C4.64396 13.5386 5.30106 13.504 5.48123 13.026C5.55012 12.8474 5.55542 12.7438 5.50243 12.3694C5.40704 11.661 5.46533 9.76622 5.60311 9.09239C5.80978 8.07875 6.22311 6.91537 6.64705 6.17819C6.80602 5.89598 6.9809 5.59074 7.03389 5.49859C7.35184 4.9169 8.57595 3.56347 9.14826 3.1488C10.118 2.45192 10.6108 2.17548 11.4428 1.87599C12.4338 1.51316 13.1491 1.36918 14.1613 1.33462L14.9986 1.30007L14.9456 1.44981C14.8926 1.59379 14.8237 1.74929 14.5958 2.23883C14.3945 2.65926 13.9864 3.22943 13.5678 3.66137C13.1968 4.04725 11.9992 4.83051 11.782 4.83051C11.7449 4.83051 11.623 4.93418 11.5064 5.05512C11.0295 5.56194 10.9235 6.25306 11.2096 6.99025C11.5011 7.72744 12.0204 8.44735 12.6669 9.01176C12.8683 9.18454 13.0379 9.32276 13.0538 9.32276C13.075 9.32276 13.1915 9.39763 13.324 9.48402L13.5625 9.64528L13.4141 9.80078C13.2127 10.0139 12.7729 10.1867 12.455 10.1867C12.2483 10.1867 12.1582 10.2212 12.0257 10.3364C11.4746 10.8432 11.6813 11.8511 12.4179 12.2485C12.6616 12.3809 13.9599 12.6804 15.2105 12.8935C15.5444 12.9454 15.9259 13.049 16.0584 13.1124C16.583 13.3715 16.9593 13.9187 17.1341 14.6847C17.2401 15.1569 17.2401 15.3124 17.1341 15.4737C16.9858 15.7041 16.1273 16.3837 15.8093 16.5219C15.2635 16.7522 14.9456 17.2015 14.9403 17.7198C14.9403 18.0423 15.0357 18.2785 15.3059 18.6067C15.6133 18.9811 15.9683 19.1539 16.53 19.1999C16.7791 19.223 17.1023 19.2748 17.2507 19.3209C17.4998 19.3958 18.1198 19.7816 18.1198 19.868C18.1198 19.9659 16.7791 20.4382 16.0054 20.611C14.9827 20.8356 13.6685 20.8241 12.5662 20.5764C12.0946 20.4727 10.8493 20.0293 10.5419 19.8623C10.1816 19.6607 9.85835 19.7528 9.66758 20.1042C9.5669 20.2942 9.5828 20.6628 9.69938 20.8183C9.82656 20.9853 11.0083 21.5209 11.7343 21.7456C12.2112 21.8895 13.3081 22.0508 14.0394 22.0853C14.7283 22.1199 15.2794 22.0738 16.4505 21.878C17.3461 21.7283 18.9465 21.0084 19.9321 20.3057C21.0237 19.534 21.6755 18.8544 22.693 17.4434C22.942 17.0978 23.562 15.848 23.7846 15.2491C24.3781 13.6307 24.5 12.905 24.5 11.0505C24.5 9.25365 24.3887 8.56253 23.8641 7.08815C23.562 6.23578 23.509 6.12059 23.1328 5.43524C21.8663 3.13728 20.1176 1.56499 17.7488 0.60895C16.6201 0.153966 14.7866 -0.0936833 13.483 0.0330211ZM16.4452 1.57651C18.4907 2.13516 20.3189 3.44828 21.5431 5.23366C22.375 6.44887 22.889 7.73319 23.1911 9.36883C23.3236 10.0772 23.3236 12.0239 23.1911 12.7323C22.8202 14.7365 22.1949 16.113 20.9707 17.6277C20.5309 18.169 19.3333 19.2287 19.1637 19.2287C19.0948 19.2287 18.9465 19.1424 18.8299 19.0387C18.5967 18.8256 18.2894 18.6067 18.0138 18.4512C17.7488 18.3015 17.0811 18.1345 16.742 18.1345C16.4187 18.1345 16.1326 18.002 16.0107 17.8062C15.9418 17.6853 15.9524 17.6737 16.4081 17.4318C17.1129 17.0517 18.1145 16.1245 18.1198 15.8423C18.1198 15.7559 18.2046 15.7501 18.2523 15.8365C18.2735 15.8711 18.3847 15.9747 18.5013 16.0669C18.8511 16.3376 19.1955 16.2685 19.3386 15.8941C19.3757 15.7962 19.3916 15.658 19.3704 15.5831C19.3545 15.514 19.1319 15.2203 18.8776 14.9381C18.0827 14.0511 17.7276 13.17 17.5952 11.7532C17.5581 11.3443 17.5263 11.2406 17.4309 11.1542C17.1977 10.9469 16.9222 10.9469 16.6837 11.16C16.5671 11.2636 16.5565 11.3097 16.5671 11.7071C16.5777 12.1218 16.5724 12.1448 16.4823 12.0872C16.3816 12.0354 14.9191 11.7013 13.642 11.4479C13.2922 11.3788 12.9743 11.304 12.9319 11.2809C12.8895 11.2579 13.0061 11.2003 13.2392 11.1369C13.6526 11.0275 13.9387 10.8259 14.3362 10.3479C14.5004 10.1579 14.564 10.0254 14.5905 9.82382C14.6329 9.52433 14.5587 9.16726 14.4209 8.9772C14.3256 8.8505 13.9281 8.56253 13.5731 8.36672C13.4724 8.30912 13.2233 8.08451 13.0114 7.8599C12.031 6.80595 11.7873 5.8787 12.4497 5.7232C12.6404 5.67713 13.4883 5.15303 13.7109 4.93994C13.8062 4.84779 13.9069 4.77292 13.9334 4.77292C14.0341 4.77292 14.9138 3.74201 15.184 3.29854C15.3377 3.04513 15.6027 2.53255 15.7669 2.16396C15.9312 1.79536 16.0743 1.49012 16.0902 1.49012C16.1061 1.49012 16.2651 1.53044 16.4452 1.57651Z" fill="black"/>
<path d="M14.5057 7.85414C14.4527 7.92901 14.4104 8.06723 14.4104 8.15938C14.4104 8.36096 14.511 8.47038 14.8449 8.62589C14.9827 8.68924 15.1999 8.86202 15.3271 9.006C15.5179 9.21909 15.5921 9.26517 15.751 9.26517C15.8941 9.26517 15.9683 9.22485 16.0478 9.11543C16.2492 8.83898 16.175 8.60861 15.7881 8.25729C15.2052 7.7332 14.6912 7.57194 14.5057 7.85414Z" fill="black"/>
<path d="M6.86962 12.8705C6.70004 12.9108 6.45628 13.0317 6.3238 13.1297C6.09064 13.3024 5.61371 13.9014 5.61371 14.0166C5.61371 14.0511 5.39645 14.0742 5.07319 14.0742C4.56447 14.0742 4.50088 14.0857 4.18293 14.2585C3.7431 14.4946 3.49404 14.7365 3.26087 15.1627L3.0701 15.5025L2.70446 15.491C2.29112 15.4737 1.8142 15.6061 1.54394 15.802C1.29488 15.9863 0.902738 16.5046 0.775558 16.8098C0.701369 16.9826 0.658975 17.236 0.643078 17.5585C0.621881 17.9963 0.637779 18.0999 0.764959 18.4512C0.908037 18.8256 0.908037 18.8486 0.82325 18.9926C0.542393 19.4534 0.5 19.6377 0.5 20.323C0.5 20.922 0.515898 21.0199 0.643078 21.3194C0.807353 21.6995 1.24718 22.2293 1.56514 22.4309C1.68172 22.5058 1.89898 22.6094 2.04206 22.6555C2.32822 22.7477 2.99062 22.7707 3.18669 22.6901C3.56823 22.5403 3.58942 22.5461 3.78019 22.8744C4.09815 23.4157 4.54858 23.7498 5.20567 23.9283C5.6614 24.0608 6.13303 24.009 6.64175 23.7786C6.965 23.6288 7.09748 23.5309 7.36774 23.2142C7.81287 22.6958 7.94535 22.3676 7.98245 21.6707L8.01424 21.1235L8.33219 21.0314C8.9257 20.8529 9.40263 20.1733 9.47152 19.4246L9.50861 19.0502L10.3194 18.5895C11.4587 17.9444 12.4921 17.1208 13.2604 16.2339C13.7692 15.6407 14.5587 14.4716 14.6011 14.2412C14.6488 13.9705 14.564 13.7459 14.3627 13.6192C14.2143 13.527 14.1666 13.5213 13.9705 13.5846C12.2589 14.1087 10.6373 14.414 9.72588 14.3794L9.25425 14.3621L9.18006 14.126C9.07938 13.7977 8.65014 13.2391 8.36929 13.0721C8.10433 12.9108 7.638 12.7783 7.36244 12.7841C7.26176 12.7841 7.03919 12.8244 6.86962 12.8705ZM7.6221 13.9072C7.88176 13.9647 8.2633 14.4428 8.2633 14.7135C8.2633 14.7826 8.19441 15.0245 8.10433 15.2548C8.01954 15.4852 7.94535 15.7444 7.94535 15.825C7.94535 16.0496 8.15202 16.2915 8.37989 16.3318C8.65544 16.3779 8.81442 16.2454 8.99459 15.8423L9.13767 15.514L9.80007 15.5025C10.6161 15.4852 11.2679 15.4046 12.1264 15.2203C12.4868 15.1396 12.7941 15.0936 12.81 15.1051C12.8471 15.1512 11.7714 16.2742 11.4428 16.5276C10.7645 17.0575 10.2664 17.3858 9.63579 17.7256L8.96809 18.0826L8.74023 17.9559C8.56536 17.858 8.39048 17.8177 8.05134 17.8004C7.59561 17.7774 7.59561 17.7774 7.42603 17.9617C7.19817 18.2036 7.19287 18.48 7.41013 18.7162C7.54261 18.8544 7.6115 18.8832 7.82877 18.8832C8.21561 18.8832 8.40638 18.9753 8.44877 19.1769C8.49647 19.413 8.311 19.8162 8.08843 19.9487C7.91356 20.0466 7.84467 20.0466 7.30415 19.9429C7.13988 19.9141 7.08688 19.9314 6.93321 20.0811C6.72124 20.2885 6.70534 20.5188 6.88552 20.9047C7.11338 21.3885 7.018 21.999 6.64175 22.4539C6.37679 22.7707 6.08534 22.8801 5.58192 22.8456C5.0626 22.8053 4.80824 22.6325 4.58567 22.1429C4.43199 21.8204 4.43199 21.8031 4.51678 21.6246C4.67576 21.3021 4.81883 20.7722 4.81883 20.5131C4.81883 20.1905 4.63336 19.9774 4.35781 19.9774C4.01866 19.9774 3.81729 20.1675 3.81199 20.5015C3.81199 20.9565 3.41455 21.4633 2.96412 21.5958C2.4342 21.7456 1.84069 21.4403 1.59163 20.8874C1.41146 20.4785 1.46445 19.8795 1.71351 19.5513C1.8195 19.413 1.86189 19.4015 2.52429 19.3497C3.28207 19.2979 3.45694 19.2287 3.55233 18.9581C3.62122 18.7565 3.52583 18.4455 3.35626 18.3245C3.24498 18.2439 3.1178 18.2381 2.54019 18.2727C1.86719 18.3073 1.85129 18.3073 1.7771 18.1806C1.65522 17.979 1.61813 17.5989 1.69232 17.357C1.7665 17.1036 2.02087 16.781 2.22753 16.6601C2.466 16.5276 2.87403 16.5564 3.18139 16.7292C3.64242 16.9941 3.92857 16.7926 4.02396 16.1475C4.08225 15.7501 4.18293 15.5831 4.49558 15.3412C4.69165 15.1915 4.77114 15.1684 5.0467 15.1684C5.31696 15.1684 5.41234 15.203 5.58722 15.3297C5.87337 15.537 6.10654 15.537 6.3079 15.3182C6.40859 15.2088 6.46158 15.0878 6.46158 14.9784C6.46158 14.5637 6.67885 14.1721 7.0021 13.9935C7.24056 13.8668 7.35184 13.8496 7.6221 13.9072Z" fill="black"/>
</svg>
