<svg width="21" height="16" viewBox="0 0 21 16" fill="none" xmlns="http://www.w3.org/2000/svg">
<path d="M19.5 0H1.5C0.95 0 0.5 0.45 0.5 1V6C0.5 11.5 5 16 10.5 16C16 16 20.5 11.5 20.5 6V1C20.5 0.45 20.05 0 19.5 0ZM2.5 2H18.5V4H13.5V6H18.5C18.5 6.34 18.5 6.67 18.44 7C16.6039 7.01464 14.8472 7.75052 13.5489 9.04886C12.2505 10.3472 11.5146 12.1039 11.5 13.94C11.17 14 10.84 14 10.5 14C10.16 14 9.83 14 9.5 13.94C9.48536 12.1039 8.74948 10.3472 7.45114 9.04886C6.1528 7.75052 4.39608 7.01464 2.56 7C2.5 6.67 2.5 6.34 2.5 6H7.5V4H2.5V2ZM13.54 13.4C13.6737 12.2884 14.1773 11.254 14.9699 10.4632C15.7625 9.67237 16.7981 9.17111 17.91 9.04C17.0785 11.0139 15.5058 12.583 13.53 13.41M3.1 9.04C5.38 9.31 7.2 11.12 7.47 13.41C5.49238 12.5839 3.92155 11.0095 3.1 9.03V9.04Z" fill="black"/>
</svg>
