<svg width="25" height="24" viewBox="0 0 25 24" fill="none" xmlns="http://www.w3.org/2000/svg">
<path d="M21.5 4H3.5C2.95 4 2.5 4.45 2.5 5V10C2.5 15.5 7 20 12.5 20C18 20 22.5 15.5 22.5 10V5C22.5 4.45 22.05 4 21.5 4ZM4.5 6H20.5V8H15.5V10H20.5C20.5 10.34 20.5 10.67 20.44 11C18.6039 11.0146 16.8472 11.7505 15.5489 13.0489C14.2505 14.3472 13.5146 16.1039 13.5 17.94C13.17 18 12.84 18 12.5 18C12.16 18 11.83 18 11.5 17.94C11.4854 16.1039 10.7495 14.3472 9.45114 13.0489C8.1528 11.7505 6.39608 11.0146 4.56 11C4.5 10.67 4.5 10.34 4.5 10H9.5V8H4.5V6ZM15.54 17.4C15.6737 16.2884 16.1773 15.254 16.9699 14.4632C17.7625 13.6724 18.7981 13.1711 19.91 13.04C19.0785 15.0139 17.5058 16.583 15.53 17.41M5.1 13.04C7.38 13.31 9.2 15.12 9.47 17.41C7.49238 16.5839 5.92155 15.0095 5.1 13.03V13.04Z" fill="black"/>
</svg>
