<svg width="25" height="24" viewBox="0 0 25 24" fill="none" xmlns="http://www.w3.org/2000/svg">
<path d="M20.5 11C21.6 9.6 21.8 7.7 21.2 6.1L22 5.3C22.3713 4.9287 22.5799 4.42511 22.5799 3.9C22.5799 3.3749 22.3713 2.87131 22 2.5C21.6287 2.1287 21.1251 1.9201 20.6 1.9201C20.0749 1.9201 19.5713 2.1287 19.2 2.5L18.4 3.3C17.5875 3.01171 16.7173 2.92479 15.8638 3.04671C15.0104 3.16863 14.1992 3.49575 13.5 4" stroke="black" stroke-width="2" stroke-linecap="round" stroke-linejoin="round"/>
<path d="M11.8 3.70001C11.9869 3.51678 12.2382 3.41415 12.5 3.41415C12.7617 3.41415 13.0131 3.51678 13.2 3.70001L20.8 11.3C20.9832 11.4869 21.0859 11.7383 21.0859 12C21.0859 12.2618 20.9832 12.5131 20.8 12.7L19.2 14.3C19.0131 14.4832 18.7617 14.5859 18.5 14.5859C18.2382 14.5859 17.9869 14.4832 17.8 14.3L10.2 6.70001C10.0168 6.51308 9.91414 6.26176 9.91414 6.00001C9.91414 5.73826 10.0168 5.48694 10.2 5.30001L11.8 3.70001Z" stroke="black" stroke-width="2" stroke-linecap="round" stroke-linejoin="round"/>
<path d="M10.5 7L3.19999 14.3C2.29999 15.2 2.29999 16.8 3.19999 17.7L6.79999 21.3C7.69999 22.2 9.29999 22.2 10.2 21.3L17.5 14M4.49999 13L6.49999 15M7.49999 10L9.49999 12" stroke="black" stroke-width="2" stroke-linecap="round" stroke-linejoin="round"/>
</svg>
