<svg width="23" height="23" viewBox="0 0 23 23" fill="none" xmlns="http://www.w3.org/2000/svg">
<path d="M19.5 11C20.6 9.6 20.8 7.7 20.2 6.1L21 5.3C21.3713 4.9287 21.5799 4.42511 21.5799 3.9C21.5799 3.3749 21.3713 2.87131 21 2.5C20.6287 2.1287 20.1251 1.9201 19.6 1.9201C19.0749 1.9201 18.5713 2.1287 18.2 2.5L17.4 3.3C16.5875 3.01171 15.7173 2.92479 14.8638 3.04671C14.0104 3.16863 13.1992 3.49575 12.5 4" stroke="black" stroke-width="2" stroke-linecap="round" stroke-linejoin="round"/>
<path d="M10.8 3.70001C10.9869 3.51678 11.2382 3.41415 11.5 3.41415C11.7617 3.41415 12.0131 3.51678 12.2 3.70001L19.8 11.3C19.9832 11.4869 20.0859 11.7383 20.0859 12C20.0859 12.2618 19.9832 12.5131 19.8 12.7L18.2 14.3C18.0131 14.4832 17.7617 14.5859 17.5 14.5859C17.2382 14.5859 16.9869 14.4832 16.8 14.3L9.2 6.70001C9.01677 6.51308 8.91414 6.26176 8.91414 6.00001C8.91414 5.73826 9.01677 5.48694 9.2 5.30001L10.8 3.70001Z" stroke="black" stroke-width="2" stroke-linecap="round" stroke-linejoin="round"/>
<path d="M9.49999 7L2.19999 14.3C1.29999 15.2 1.29999 16.8 2.19999 17.7L5.79999 21.3C6.69999 22.2 8.29999 22.2 9.19999 21.3L16.5 14M3.49999 13L5.49999 15M6.49999 10L8.49999 12" stroke="black" stroke-width="2" stroke-linecap="round" stroke-linejoin="round"/>
</svg>
