<svg width="64" height="64" viewBox="0 0 64 64" fill="none" xmlns="http://www.w3.org/2000/svg">
<g clip-path="url(#clip0_628_571)">
<path d="M24.4047 3.72839C22.9977 4.04067 22.0682 4.37835 20.9284 4.99145C17.225 6.98367 14.6892 10.6369 14.173 14.7239L14.0227 15.9137L13.5548 15.9885C12.8261 16.105 12.4482 16.5339 11.8268 17.949L11.2609 19.2376L9.95734 19.3057C8.7848 19.3669 8.57499 19.4159 7.87112 19.7923C6.96217 20.2784 6.42601 20.841 6.03242 21.7221C5.84964 22.1312 5.41845 24.1658 4.796 27.5557C3.89801 32.4462 3.85219 32.7793 4.03846 33.0634C4.45546 33.6999 5.35457 33.5752 5.58455 32.849C5.65652 32.6219 6.11398 30.2508 6.60095 27.58C7.58548 22.1816 7.68845 21.87 8.65368 21.3656C9.14091 21.111 9.31759 21.1045 16.7587 21.0714L24.3657 21.0375L25.0333 21.3863C25.5474 21.6549 25.7658 21.8632 25.983 22.2917C26.1914 22.7033 26.6554 24.9746 27.7623 31.0041C28.5858 35.4897 29.2868 39.2772 29.32 39.4206C29.3634 39.6086 29.0296 40.1648 28.1241 41.4128C26.5968 43.5177 26.2622 43.8818 25.463 44.307L24.8405 44.6383L17.0584 44.6752C11.6409 44.7008 9.10604 44.6698 8.71594 44.5732C7.63379 44.3054 7.07261 43.8101 5.66909 41.884C4.94803 40.8942 4.35796 39.9961 4.35796 39.888C4.35796 39.7801 4.50589 38.9095 4.68668 37.9534L5.01552 36.2154L4.76774 35.8822C4.45546 35.4621 3.75918 35.3643 3.45985 35.6984C3.14657 36.0481 0.223986 51.9078 0.21776 53.292C0.205558 55.9785 1.6148 58.3655 3.94607 59.6069C5.69723 60.5393 5.27986 60.5101 16.8716 60.5101C28.3565 60.5101 28.0462 60.5303 29.6686 59.6778C32.0301 58.4368 33.5005 56.0427 33.5111 53.4211C33.5147 52.556 33.0023 49.5799 30.759 37.4316C29.2428 29.2221 27.8975 22.229 27.7693 21.8917C27.4295 20.9973 26.7805 20.278 25.8782 19.7955C25.1678 19.4157 24.9602 19.367 23.7883 19.3057L22.4871 19.2376L21.9646 18.0547C21.3421 16.6454 20.866 16.0968 20.1687 15.9854C19.5996 15.8944 19.592 15.8622 19.8645 14.7056C20.5419 11.8322 23.1252 9.5169 26.1264 9.09318C27.2434 8.93542 27.6517 8.43612 27.2609 7.70585C27.0379 7.2891 26.6098 7.2119 25.5559 7.39843C23.0985 7.83335 20.8746 9.2421 19.5141 11.2256C18.6791 12.443 17.9365 14.4669 17.9318 15.5383L17.9299 15.948L16.9027 15.9118L15.8755 15.8757L15.9178 15.1981C16.0263 13.4626 16.8959 11.3084 18.1667 9.6271C19.7856 7.48521 22.1272 6.02442 24.8382 5.46485C26.1243 5.19939 30.0901 5.13664 31.5019 5.35939C36.3824 6.12938 40.2125 10.1176 40.8344 15.0768C40.9135 15.7082 40.965 19.3314 40.965 24.2821C40.965 33.1405 40.9652 33.1439 41.6656 34.5898C42.0577 35.3992 43.1274 36.5753 43.9534 37.1054C44.2922 37.3228 44.949 37.6346 45.4131 37.7983C46.1547 38.0602 46.4789 38.0964 48.0934 38.0988L49.93 38.1014V39.1789V40.2566L47.9689 40.178C45.7544 40.0894 45.1123 39.9488 43.5946 39.2205C41.6962 38.3096 39.9817 36.2861 39.2702 34.1169C39.0653 33.492 39.0386 32.6366 38.9668 24.3426C38.8779 14.091 38.9019 14.3643 37.916 12.3668C36.7339 9.97162 34.5092 8.1602 31.997 7.54722C30.1965 7.10794 29.3852 7.29695 29.3852 8.15584C29.3852 8.71441 29.7223 8.9612 30.6681 9.09505C33.5438 9.50233 35.9329 11.5399 36.8666 14.3815C36.9929 14.7659 37.0464 16.9537 37.1013 23.9691C37.1821 34.2995 37.15 33.9511 38.2267 36.1714C39.5293 38.8579 41.7853 40.7484 44.7004 41.5965C45.4431 41.8125 46.0738 41.8805 47.7821 41.9288L49.93 41.9896L49.9354 42.4423C49.9439 43.1411 50.2473 43.8556 50.7008 44.2446C50.9274 44.4389 51.6171 44.8125 52.2335 45.0749L53.3541 45.5519L53.4163 48.2701C53.4816 51.1215 53.5401 51.4271 54.1196 51.9407C54.2463 52.0531 56.0031 53.1714 58.0233 54.4257C61.2964 56.4578 61.7533 56.7054 62.218 56.6995C62.8055 56.6917 63.2695 56.4362 63.5936 55.9418C63.7929 55.6375 63.8132 55.2005 63.8132 51.2011V46.7954L63.5192 46.5573C63.1453 46.2545 62.738 46.2544 62.364 46.5571L62.07 46.795L62.0078 50.7826L61.9455 54.7701L58.6148 52.6944L55.284 50.6186V39.1426V27.6666L58.6148 25.609L61.9455 23.5515L62.0078 33.6771C62.0677 43.4125 62.0791 43.8131 62.3072 44.0649C62.6215 44.4122 63.2619 44.4121 63.576 44.0649C63.8054 43.8116 63.8132 43.4525 63.8132 33.2413C63.8132 22.7385 63.8117 22.678 63.5541 22.3284C63.4115 22.135 63.093 21.8663 62.8461 21.7311C62.4701 21.5252 62.3202 21.5062 61.9224 21.6139C61.301 21.7819 54.5919 25.928 54.0791 26.4606C53.8616 26.6867 53.6238 27.087 53.5507 27.3504C53.4773 27.6142 53.4175 28.9236 53.4171 30.2682L53.4163 32.7076L52.1726 33.2386C50.4843 33.9595 49.9328 34.6301 49.9307 35.965L49.93 36.381L48.0934 36.3381C46.4149 36.2988 46.196 36.2667 45.5502 35.9642C44.7054 35.5688 43.8329 34.7942 43.3998 34.0552C42.7163 32.8887 42.7082 32.7696 42.7074 23.8495C42.7067 14.7741 42.6679 14.1702 41.9578 12.1403C40.5411 8.09085 37.1618 4.96555 32.9961 3.85215C32.0481 3.59877 31.6003 3.56527 28.7004 3.53141C25.8922 3.49854 25.3227 3.52468 24.4047 3.72839ZM30.7946 47.4088C31.323 50.2778 31.7517 52.95 31.7515 53.3723C31.7501 55.5016 30.3127 57.6061 28.3074 58.4149L27.5798 58.7084L17.1231 58.743C6.99666 58.7765 6.64092 58.7698 5.853 58.5304C4.34016 58.0709 3.15255 57.0271 2.44917 55.5389C1.78016 54.1232 1.81303 53.5142 2.87015 47.7339C3.36945 45.004 3.81807 42.7238 3.86713 42.6664C3.91606 42.6091 4.34962 43.0926 4.83049 43.741C5.82025 45.0753 6.18296 45.3885 7.41178 45.9704L8.28014 46.3815L16.249 46.4202C21.9062 46.4478 24.4334 46.4174 24.9609 46.3153C26.5006 46.0174 27.6338 45.1561 28.9494 43.2831C29.3603 42.6982 29.7281 42.2175 29.7668 42.2149C29.8056 42.2124 30.2681 44.5497 30.7946 47.4088ZM53.4163 39.1597C53.4163 41.6185 53.3678 43.58 53.3069 43.58C53.2466 43.58 52.8824 43.4358 52.4975 43.2596L51.7977 42.9391V39.1589V35.3785L52.4514 35.0693C52.8109 34.8994 53.1752 34.7556 53.2607 34.7498C53.3825 34.7417 53.4163 35.701 53.4163 39.1597ZM20.1922 18.4608L20.5244 19.2376H16.8716H13.2187L13.5509 18.4608L13.8833 17.6841H16.8716H19.8599L20.1922 18.4608Z" fill="white" stroke="white" stroke-width="1.33333"/>
<path d="M16.2273 48.8166C13.1687 49.41 12.35 53.3944 14.9294 55.134C17.2557 56.703 20.3268 55.057 20.3268 52.2412C20.3268 50.0769 18.3299 48.4087 16.2273 48.8166ZM18.0159 50.97C18.4241 51.3442 18.4774 51.4656 18.5256 52.1331C18.576 52.8295 18.5534 52.9083 18.1822 53.3311C17.4688 54.1438 16.3639 54.1859 15.638 53.4282C15.0227 52.7859 14.9985 51.7184 15.5849 51.087C15.9652 50.6774 16.2478 50.5697 16.9668 50.5601C17.4721 50.5534 17.6276 50.6143 18.0159 50.97Z" fill="white" stroke="white" stroke-width="1.33333"/>
<path d="M58.08 34.0487L57.7743 34.3543V39.1399C57.7743 43.6053 57.7896 43.9446 58.0039 44.2091C58.1592 44.4009 58.367 44.4927 58.6459 44.4927C58.9248 44.4927 59.1326 44.4009 59.2879 44.2091C59.5022 43.9446 59.5175 43.6053 59.5175 39.1399V34.3543L59.2118 34.0487C58.8241 33.6608 58.4677 33.6608 58.08 34.0487Z" fill="white" stroke="white" stroke-width="1.33333"/>
<path d="M12.6206 36.7999C12.2521 37.1684 12.2911 37.6453 12.7194 38.0077C12.9528 38.2051 13.3436 38.2256 16.8716 38.2256C20.4709 38.2256 20.7877 38.2082 21.0498 37.996C21.2415 37.8407 21.3333 37.6329 21.3333 37.354C21.3333 37.0751 21.2415 36.8673 21.0498 36.712C20.7877 36.4997 20.4704 36.4824 16.8522 36.4824H12.9381L12.6206 36.7999Z" fill="white" stroke="white" stroke-width="1.33333"/>
<path d="M12.6206 31.4459C12.2504 31.8161 12.2915 32.2917 12.7255 32.6586C12.9687 32.8641 13.2948 32.8786 16.9494 32.8453C20.483 32.8132 20.9325 32.7866 21.1215 32.5974C21.4313 32.2873 21.3937 31.6366 21.0498 31.358C20.7877 31.1457 20.4704 31.1284 16.8522 31.1284H12.9381L12.6206 31.4459Z" fill="white" stroke="white" stroke-width="1.33333"/>
<path d="M12.5779 26.1115C12.3926 26.347 12.3361 26.5438 12.3902 26.7652C12.5596 27.457 12.533 27.4523 16.5334 27.4932C18.5685 27.514 20.4154 27.4975 20.6379 27.4565C21.0916 27.3728 21.4701 26.8181 21.3343 26.436C21.0934 25.7588 21.1996 25.7744 16.8614 25.7744H12.843L12.5779 26.1115Z" fill="white" stroke="white" stroke-width="1.33333"/>
<path d="M26.3033 50.2819C26.2175 50.3363 25.6712 51.0747 25.0893 51.9227C23.9488 53.5844 23.8383 53.9389 24.3193 54.3909C24.6627 54.7134 24.9923 54.7345 25.3853 54.4591C25.8063 54.1643 27.642 51.3325 27.642 50.9778C27.642 50.3889 26.8133 49.9581 26.3033 50.2819Z" fill="white" stroke="white" stroke-width="1.33333"/>
<path d="M6.35019 50.4279C6.21323 50.5648 6.10117 50.8122 6.10117 50.9776C6.10117 51.3322 7.93687 54.164 8.35785 54.4589C8.78008 54.7546 9.15984 54.7073 9.46378 54.3209C9.65404 54.079 9.71106 53.878 9.66076 53.6269C9.58917 53.2685 7.84386 50.6206 7.49074 50.3345C7.20199 50.1004 6.63085 50.1472 6.35019 50.4279Z" fill="white" stroke="white" stroke-width="1.33333"/>
</g>
<defs>
<clipPath id="clip0_628_571">
<rect width="64" height="64" fill="white"/>
</clipPath>
</defs>
</svg>
