<svg width="64" height="64" viewBox="0 0 64 64" fill="none" xmlns="http://www.w3.org/2000/svg">
<g clip-path="url(#clip0_628_495)">
<path d="M28.3152 15.7092C27.5753 16.4491 27.1515 20.1931 27.1515 25.9938C27.1515 34.5679 27.0061 35.2292 24.7273 37.0222C22.4349 38.8248 22.303 39.4474 22.303 48.4694C22.303 57.9317 22.3273 58.0297 25.2868 60.5199C28.0466 62.8423 28.9726 63.0304 37.6563 63.0304C42.8189 63.0304 48.5392 62.6018 50.368 62.0772C54.6192 60.8573 60.1212 55.5569 60.1212 52.6808C60.1212 50.0772 56.2599 47.1972 53.9549 48.0815C52.6255 48.5926 52.3636 47.9759 52.3636 44.3327C52.3636 37.762 50.1653 35.6394 42.8112 35.107L36.8485 34.6765V26.4864C36.8485 21.9822 36.3966 17.4527 35.8449 16.4209C34.7074 14.2954 30.1586 13.8658 28.3152 15.7092ZM42.8936 48.7274C43.391 53.4808 43.2776 53.7756 41.2538 52.9989C39.263 52.2348 39.1321 44.6062 41.1103 44.6062C41.9879 44.6062 42.6143 46.0539 42.8936 48.7274Z" fill="white" stroke="white" stroke-width="1.33333"/>
<path d="M17.2402 3.90117C14.7927 5.5225 11.3057 8.68953 9.49237 10.9402C0.672976 21.8832 -0.0833876 24.6284 4.1794 30.2178C7.28534 34.2895 15.1738 40.1252 15.9263 38.9072C16.224 38.4253 15.3532 37.2995 13.9898 36.4064C11.0933 34.5087 3.87879 27.2379 3.87879 26.2168C3.87879 25.8318 6.82473 26.0859 10.4242 26.7831C18.209 28.29 21.6456 28.4423 20.9076 27.2466C20.6099 26.7666 17.7484 26.0684 14.5474 25.697C11.3464 25.3257 8.72728 24.6633 8.72728 24.2241C8.72728 23.7858 11.5636 23.1235 15.0303 22.7521C18.497 22.3807 21.3333 21.6912 21.3333 21.2209C21.3333 20.0573 18.2099 20.195 10.4242 21.7019C6.82473 22.3991 3.87879 22.6493 3.87879 22.2575C3.87879 20.6624 12.5682 9.89098 16.0941 7.11668C21.8066 2.6202 23.3765 2.43305 27.5462 5.7465C31.4017 8.81074 32.9687 8.7768 36.5556 5.55256C39.6296 2.78795 42.9653 3.18456 47.6141 6.86553C51.3716 9.8425 60.1212 20.61 60.1212 22.2575C60.1212 22.6493 57.1762 22.3991 53.5758 21.7019C45.7901 20.195 42.6667 20.0573 42.6667 21.2209C42.6667 21.6912 45.503 22.3807 48.9697 22.7521C52.4364 23.1235 55.2727 23.7858 55.2727 24.2241C55.2727 24.6633 52.6536 25.3257 49.4526 25.697C46.2516 26.0684 43.3901 26.7666 43.0924 27.2466C42.3544 28.4423 45.791 28.29 53.5758 26.7831C57.1762 26.0859 60.1038 25.7746 60.0815 26.0917C60.0601 26.4078 58.7598 28.1669 57.1927 29.9996C55.6257 31.8333 54.5542 33.5438 54.8121 33.8018C55.5316 34.5213 60.1348 29.9036 61.7038 26.8888C62.9314 24.5286 62.9188 23.8158 61.6029 21.0415C59.7479 17.1337 52.0262 7.84783 47.6354 4.24735C43.6441 0.973652 38.688 0.784561 35.4938 3.7848C32.8223 6.29535 31.6664 6.32347 28.3249 3.96032C23.7721 0.741894 22.0238 0.732197 17.2402 3.90117Z" fill="white" stroke="white" stroke-width="1.33333"/>
</g>
<defs>
<clipPath id="clip0_628_495">
<rect width="64" height="64" fill="white"/>
</clipPath>
</defs>
</svg>
