<svg width="64" height="64" viewBox="0 0 64 64" fill="none" xmlns="http://www.w3.org/2000/svg">
<path d="M42.6938 40.4702C41.375 40.7165 37.1093 42.1846 33.2141 43.7322C24.6943 47.1165 18.1944 47.3628 10.1818 44.6059C7.08169 43.5393 4.17648 42.6665 3.72654 42.6665C3.27757 42.6665 2.90909 45.7211 2.90909 49.4544C2.90909 53.1878 3.29212 56.2423 3.76048 56.2423C4.22885 56.2423 6.17794 55.5878 8.09309 54.7878C12.1416 53.0966 21.9287 52.8687 25.8764 54.3747C31.9777 56.7019 37.3217 57.0627 45.5758 55.7061C50.1091 54.9613 55.3455 54.2312 57.2121 54.0847C60.2667 53.8452 60.6361 53.5029 60.9096 50.6675C61.153 48.1511 60.5915 46.9497 58.1188 44.6913C55.4609 42.2641 48.3433 39.4724 45.8735 39.8893C45.4429 39.9621 44.0116 40.2229 42.6938 40.4702ZM49.4545 47.515C49.4545 48.8076 48.8078 49.4544 47.5152 49.4544C46.2225 49.4544 45.5758 48.8076 45.5758 47.515C45.5758 46.2224 46.2225 45.5756 47.5152 45.5756C48.8078 45.5756 49.4545 46.2224 49.4545 47.515Z" fill="white" stroke="white" stroke-width="1.33333"/>
<path d="M43.1515 12.6635C41.5515 13.1318 39.6936 14.4012 39.0225 15.4853C37.9559 17.2055 38.0383 17.4548 39.6703 17.4548C47.5724 17.4548 45.4992 26.9714 36.8417 30.4351C31.6984 32.4938 29.3789 32.4104 28.1552 30.1248C25.5942 25.3384 27.9253 19.5794 31.9942 20.6431C34.7462 21.3626 35.167 20.0361 32.9425 17.6487C30.2448 14.7532 25.0395 13.512 20.6623 14.7212C16.544 15.8577 11.8904 20.391 11.0187 24.1137C10.6899 25.5178 9.1937 27.976 7.69357 29.576C4.90473 32.552 2.3583 37.8184 3.70812 37.8184C4.12121 37.8184 5.02206 36.2611 5.71054 34.3575C7.33867 29.8552 11.872 27.0237 16.8941 27.3728C21.025 27.6589 22.6133 29.4994 19.4453 30.3284C14.5183 31.6172 15.2601 39.7733 20.4703 41.5886C23.6907 42.7115 26.7617 41.9571 33.3566 38.4244C39.9098 34.9132 49.0337 34.8501 55.7876 38.2703C61.3479 41.0843 62.6327 40.8691 57.8638 37.9212C53.2655 35.08 46.1479 33.8911 40.3161 34.9917C37.6902 35.4872 35.3309 36.104 35.072 36.3619C34.5018 36.9331 32 34.9626 32 33.9425C32 33.5411 33.2732 32.9573 34.8296 32.646C38.4776 31.9168 44.0145 27.0431 45.632 23.1372C46.7937 20.3318 46.7161 19.9381 44.6739 18.2848C43.4521 17.2948 41.7367 16.4715 40.8621 16.454C37.6902 16.3929 42.8897 13.576 46.176 13.576C50.1527 13.576 53.3333 17.3209 53.3333 22.0036C53.3333 24.5064 54.1033 26.0249 56.4655 28.1825C58.1886 29.7563 60.0097 30.9064 60.513 30.7386C61.0162 30.5709 60.0601 29.4586 58.3874 28.2678C56.2463 26.7435 55.169 25.0368 54.751 22.5059C53.7096 16.2097 52.3287 13.7534 49.2179 12.6693C47.5888 12.1011 46.2119 11.6763 46.1585 11.7238C46.1042 11.7723 44.7515 12.1951 43.1515 12.6635Z" fill="white" stroke="white" stroke-width="1.33333"/>
<path d="M4.80776 14.109C3.77794 15.3512 3.84097 15.8932 5.1743 17.2256C6.67927 18.7315 6.89648 18.7315 8.40145 17.2256C9.73479 15.8932 9.79782 15.3512 8.768 14.109C8.08145 13.2828 7.1903 12.606 6.78788 12.606C6.38545 12.606 5.4943 13.2828 4.80776 14.109Z" fill="white" stroke="white" stroke-width="1.33333"/>
<path d="M31.9593 8.29074C30.9295 9.53292 30.9925 10.075 32.3258 11.4073C33.8308 12.9133 34.048 12.9133 35.553 11.4073C36.8863 10.075 36.9493 9.53292 35.9195 8.29074C34.3496 6.39983 33.5292 6.39983 31.9593 8.29074Z" fill="white" stroke="white" stroke-width="1.33333"/>
</svg>
