<svg width="64" height="64" viewBox="0 0 64 64" fill="none" xmlns="http://www.w3.org/2000/svg">
<path d="M35.2737 2.06165C33.6068 2.52323 31.7498 3.4968 31.1467 4.22407C30.2885 5.2568 29.2305 5.32759 26.2972 4.54407C21.6145 3.29413 17.2945 4.86698 14.4543 8.85535C13.3653 10.3846 11.6645 11.6364 10.6754 11.6364C7.86811 11.6364 3.06132 16.2629 2.04605 19.9409C1.05987 23.5133 1.99272 28.3278 4.24048 31.2621C6.53672 34.2614 12.1532 35.8789 20.2657 35.8789H27.9884L33.0482 41.697C37.6417 46.978 40.7273 48.9581 40.7273 46.626C40.7273 46.1373 39.8545 43.7004 38.7879 41.2122C37.7212 38.724 36.8485 36.5053 36.8485 36.2832C36.8485 36.0612 40.353 35.8789 44.6371 35.8789C57.1743 35.8789 62.0606 32.6633 62.0606 24.4141C62.0606 20.8806 61.5088 19.618 58.7636 16.8728C56.9503 15.0595 54.7685 13.5758 53.9151 13.5758C53.0618 13.5758 52.3636 12.8796 52.3636 12.0282C52.3636 9.56323 49.4148 5.23935 46.656 3.65971C43.1719 1.66407 38.881 1.06189 35.2737 2.06165ZM46.8509 7.63256C47.8584 8.6391 48.9774 10.9092 49.3391 12.6779C49.8647 15.2456 50.6162 16.0524 53.0764 16.6895C59.5898 18.3778 61.3275 26.1179 56.1677 30.4592C53.7988 32.4529 52.1522 32.9688 48.1677 32.9678L43.1515 32.9649L38.7879 24.483L34.4242 16.0001L29.3227 15.7063C23.3619 15.364 22.2914 16.6236 24.6574 21.1976C26.6434 25.0386 26.6075 25.2122 23.8148 25.2122C20.3219 25.2122 20.0427 26.6212 22.8674 29.9783L25.3847 32.9698H18.9469C15.0031 32.9698 11.3736 32.3821 9.57575 31.4522C5.87829 29.54 3.81478 24.9378 4.92314 21.0745C6.07514 17.0551 7.4812 15.6665 11.5064 14.5678C13.823 13.9366 15.5898 12.6168 16.6623 10.7172C18.6473 7.20201 22.4194 6.08977 26.8819 7.70335C29.7202 8.73026 30.4533 8.67207 31.9651 7.3048C35.9719 3.67813 43.0526 3.83426 46.8509 7.63256ZM35.6703 25.7155C37.3847 29.1918 38.7879 32.2464 38.7879 32.5033C38.7879 32.7603 37.4788 32.9698 35.8788 32.9698C32.9309 32.9698 32.4965 33.8231 33.761 37.1298C34.1256 38.0849 32.7884 36.9203 30.7879 34.5426C26.7404 29.73 26.4882 29.091 28.6361 29.091C30.9081 29.091 31.3367 26.6784 29.6456 23.4086C27.6722 19.5909 27.7062 19.394 30.337 19.394C32.0999 19.394 33.1908 20.6866 35.6703 25.7155Z" fill="white" stroke="white" stroke-width="1.33333"/>
<path d="M8.9377 51.6364C9.09964 58.08 9.60873 62.5455 10.1818 62.5455C10.7549 62.5455 11.264 58.08 11.4259 51.6364C11.6616 42.2662 11.4861 40.7273 10.1818 40.7273C8.87758 40.7273 8.70207 42.2662 8.9377 51.6364Z" fill="white" stroke="white" stroke-width="1.33333"/>
<path d="M45.5757 54.303C45.5757 59.4744 45.9704 63.0302 46.5454 63.0302C47.1205 63.0302 47.5151 59.4744 47.5151 54.303C47.5151 49.1316 47.1205 45.5757 46.5454 45.5757C45.9704 45.5757 45.5757 49.1316 45.5757 54.303Z" fill="white" stroke="white" stroke-width="1.33333"/>
<path d="M16.4849 54.303C16.4849 59.4744 16.8795 63.0302 17.4546 63.0302C18.0296 63.0302 18.4243 59.4744 18.4243 54.303C18.4243 49.1316 18.0296 45.5757 17.4546 45.5757C16.8795 45.5757 16.4849 49.1316 16.4849 54.303Z" fill="white" stroke="white" stroke-width="1.33333"/>
<path d="M31.0303 55.7576C31.0303 59.9593 31.4395 63.0303 32 63.0303C32.5605 63.0303 32.9697 59.9593 32.9697 55.7576C32.9697 51.5559 32.5605 48.4849 32 48.4849C31.4395 48.4849 31.0303 51.5559 31.0303 55.7576Z" fill="white" stroke="white" stroke-width="1.33333"/>
<path d="M52.8155 53.5544C51.9505 55.8099 52.7011 62.5454 53.8182 62.5454C55.1408 62.5454 55.6441 54.2865 54.3971 53.0395C53.7096 52.3519 53.215 52.5139 52.8155 53.5544Z" fill="white" stroke="white" stroke-width="1.33333"/>
<path d="M23.7246 53.5544C22.8596 55.8099 23.6102 62.5454 24.7273 62.5454C26.05 62.5454 26.5532 54.2865 25.3062 53.0395C24.6187 52.3519 24.1241 52.5139 23.7246 53.5544Z" fill="white" stroke="white" stroke-width="1.33333"/>
<path d="M38.4378 53.0366C38.0974 53.3779 37.8182 55.1107 37.8182 56.8892C37.8182 59.1156 38.271 60.1212 39.2727 60.1212C40.2841 60.1212 40.7273 59.1039 40.7273 56.7844C40.7273 53.5214 39.6751 51.7992 38.4378 53.0366Z" fill="white" stroke="white" stroke-width="1.33333"/>
<path d="M52.5479 44.3637C52.7127 46.3641 53.2849 48 53.8182 48C54.3515 48 54.9236 46.3641 55.0885 44.3637C55.3232 41.5341 55.041 40.7273 53.8182 40.7273C52.5954 40.7273 52.3132 41.5341 52.5479 44.3637Z" fill="white" stroke="white" stroke-width="1.33333"/>
<path d="M23.457 44.3637C23.6218 46.3641 24.1939 48 24.7273 48C25.2606 48 25.8327 46.3641 25.9976 44.3637C26.2322 41.5341 25.9501 40.7273 24.7273 40.7273C23.5045 40.7273 23.2223 41.5341 23.457 44.3637Z" fill="white" stroke="white" stroke-width="1.33333"/>
</svg>
