<svg width="64" height="64" viewBox="0 0 64 64" fill="none" xmlns="http://www.w3.org/2000/svg">
<path d="M7.22909 7.22912C4.32872 10.1285 4.21818 12.513 6.83054 15.8342C8.74376 18.2662 8.75442 18.466 7.13503 21.5409C4.89212 25.7978 4.78254 36.962 6.93139 42.1974C8.44994 45.8968 8.43733 46.2071 6.68897 48.3656C4.21236 51.424 4.37236 53.9152 7.22909 56.7709C10.1285 59.6713 12.513 59.7819 15.8342 57.1695C18.1905 55.3164 18.5445 55.2854 21.2742 56.6963C26.3011 59.296 34.656 59.6199 40.7903 57.4526C46.0558 55.5918 46.24 55.5889 48.4131 57.3489C51.425 59.7886 53.9268 59.6151 56.7709 56.7709C59.6053 53.9375 59.8419 50.145 57.3421 47.6451C55.7023 46.0054 55.6606 45.5321 56.8921 42.6017C59.3425 36.7748 59.5617 29.1802 57.4526 23.2097C55.5918 17.9443 55.5888 17.76 57.3488 15.5869C59.7886 12.5751 59.615 10.0732 56.7709 7.22912C53.8715 4.32875 51.487 4.21821 48.1658 6.83057C45.7338 8.74379 45.5341 8.75445 42.4591 7.13506C38.2022 4.89215 27.0381 4.78257 21.8027 6.93142C18.1033 8.44997 17.793 8.43736 15.6344 6.689C12.576 4.21239 10.0848 4.37239 7.22909 7.22912ZM44.0116 11.0361C48.0398 13.3964 52.3636 17.7329 52.3636 19.4114C52.3636 19.8109 49.8415 21.6388 46.7598 23.4754C41.313 26.72 41.1161 26.7608 39.7159 24.9513C38.9236 23.9273 36.1493 22.5494 33.5515 21.889C29.2878 20.8068 28.5139 20.1591 25.6262 15.2543L22.4252 9.81821L25.0308 8.80488C29.5234 7.05845 39.1573 8.19106 44.0116 11.0361ZM27.1515 41.2122C28.6982 42.0122 31.0575 42.6667 32.3937 42.6667C34.3224 42.6667 35.5025 43.8158 38.1207 48.2425L41.4187 53.8182L38.4058 55.138C33.9898 57.0725 25.2179 56.0291 19.9496 52.9406C15.6044 50.3942 11.3571 45.9288 11.8565 44.4306C12.0068 43.9806 14.527 42.1605 17.4584 40.385C21.631 37.858 22.9566 37.4391 23.5636 38.4572C23.9903 39.1729 25.6048 40.4122 27.1515 41.2122ZM23.6024 17.4546C25.5088 20.6546 26.6444 23.2728 26.1265 23.2728C24.6012 23.2728 21.3411 29.3508 21.3372 32.1988C21.3343 34.3632 20.3559 35.4008 15.7576 38.1208L10.1818 41.4187L8.86206 38.4058C6.92751 33.9898 7.97091 25.218 11.0594 19.9496C13.4002 15.9545 17.7387 11.6364 19.4114 11.6364C19.8109 11.6364 21.697 14.2546 23.6024 17.4546ZM55.9573 34.1818C55.6402 37.7067 54.5309 41.3372 52.9406 44.0505C50.5745 48.0883 46.2575 52.3637 44.5469 52.3637C44.1241 52.3637 42.4262 49.9995 40.7728 47.1108L37.7678 41.858L40.2172 38.2478C41.5641 36.2628 42.6667 33.41 42.6667 31.9079C42.6667 29.6126 43.5549 28.6517 48.2424 25.8793L53.8182 22.5814L55.1379 25.5942C55.9922 27.5443 56.2812 30.5717 55.9573 34.1818ZM36.9231 27.0769C38.4824 28.6362 39.7576 30.8509 39.7576 32C39.7576 34.6997 34.6996 39.7576 32 39.7576C29.3004 39.7576 24.2424 34.6997 24.2424 32C24.2424 29.3004 29.3004 24.2425 32 24.2425C33.1491 24.2425 35.3639 25.5176 36.9231 27.0769ZM56.2424 52.288C56.2424 54.5445 54.3205 56.2425 51.7653 56.2425C48.6158 56.2425 48.384 54.1857 51.1942 51.169C53.0802 49.1452 53.9665 48.7729 54.9527 49.5913C55.6616 50.1799 56.2424 51.394 56.2424 52.288ZM14.4087 54.9528C12.2647 57.536 7.75757 55.7818 7.75757 52.3637C7.75757 51.5103 8.28024 50.2895 8.91927 49.6505C10.6221 47.9477 15.9515 53.0938 14.4087 54.9528ZM55.0788 8.92124C56.6177 10.4601 56.5576 13.0774 54.9527 14.4088C53.0938 15.9515 47.9476 10.6221 49.6504 8.9193C51.1379 7.43179 53.5903 7.43276 55.0788 8.92124ZM14.3496 8.9193C16.0524 10.6221 10.9062 15.9515 9.04727 14.4088C6.464 12.2648 8.21818 7.7576 11.6364 7.7576C12.4897 7.7576 13.7105 8.28027 14.3496 8.9193Z" fill="white" stroke="white" stroke-width="1.33333"/>
</svg>
