<svg width="64" height="64" viewBox="0 0 64 64" fill="none" xmlns="http://www.w3.org/2000/svg">
<path d="M33.3766 2.19018C32.5735 2.47831 32.3957 2.50321 32.0458 2.3767C30.1947 1.70732 28.3876 2.08746 26.8812 3.46321C26.4828 3.82691 26.0329 4.11454 25.7743 4.17069C24.544 4.43778 22.169 5.31049 20.7315 6.02371C17.2142 7.76901 14.1378 10.2742 11.5389 13.5097C6.08012 20.3055 3.94608 28.6358 6.00441 35.1128C8.32086 42.4017 16.2056 49.0545 25.2627 51.3619C26.2757 51.6199 26.8758 51.5255 27.3465 51.034C27.651 50.7163 27.7043 50.5597 27.7043 49.9826C27.7043 49.4309 27.739 49.3181 27.891 49.3769C28.5366 49.6265 30.9035 50.2237 32.0622 50.4293C36.0637 51.1391 40.9326 51.0961 45.5288 50.3103C48.7177 49.7651 49.2105 49.4993 49.3335 48.2575C49.3677 47.9127 49.4218 47.8797 50.3035 47.6668C51.5408 47.368 51.9222 46.982 51.9222 46.0286V45.3686L52.8645 45.0795C53.3827 44.9205 54.1944 44.6045 54.6683 44.3775C55.8965 43.7888 56.181 43.2569 55.8888 42.0958C55.8644 41.9987 55.9569 41.8586 56.0944 41.7845C57.8474 40.8402 58.3106 40.5347 58.5266 40.1804C59.1263 39.197 58.4447 37.8521 57.3467 37.8521H57.0312L57.2471 37.3887C57.3659 37.1338 57.6417 36.7669 57.8601 36.5731C58.6816 35.8446 58.6423 34.7308 57.7743 34.1409C57.4036 33.8891 57.2414 33.8559 56.6893 33.919L56.0401 33.9933L56.4664 32.9971C57.078 31.5683 57.1937 31.0725 57.0306 30.5783C56.8021 29.8859 56.359 29.572 55.6099 29.572C54.9761 29.572 54.9328 29.5959 53.8919 30.522C52.6188 31.6547 51.5826 32.376 50.6123 32.8052C49.7717 33.1769 49.7409 33.1791 48.9693 32.9225C47.8775 32.5593 46.4279 31.6055 45.1907 30.4363C43.4723 28.8122 43.1238 28.79 41.6268 30.209C39.716 32.0203 37.7086 33.2459 35.6237 33.8744C34.4999 34.2132 34.531 34.2274 32.9621 32.666C30.0353 29.753 29.0459 26.66 30.0715 23.6286C30.5677 22.1619 31.578 20.8849 32.57 20.4704C33.0608 20.2653 34.1533 20.2399 34.5 20.4255C34.6914 20.5278 34.7159 20.6049 34.6164 20.7908C34.3357 21.3151 34.586 22.3102 35.1731 23.0049C35.5074 23.4002 35.5591 23.5485 35.5151 23.9838C35.4831 24.3011 35.5383 24.6419 35.6597 24.8767C35.8731 25.2895 36.6873 25.9997 37.3084 26.3148C37.5486 26.4366 37.7317 26.6459 37.785 26.8594C37.9246 27.419 38.4433 27.9946 39.1361 28.3586C39.6998 28.6548 39.9249 28.6983 40.9027 28.6993C41.8729 28.7003 42.1164 28.6547 42.7163 28.3601C43.3058 28.0706 43.4729 28.038 43.8361 28.1422C44.9143 28.4514 46.3153 28.1341 47.2401 27.3713C47.8442 26.873 48.5964 25.7255 48.8034 24.9865C48.9442 24.4831 49.0051 24.4191 49.4137 24.3428C49.9964 24.234 50.7694 23.4417 51.2517 22.4586C51.7343 21.475 51.8091 20.1783 51.4434 19.1377L51.19 18.417L51.4906 17.9742C52.5791 16.3702 51.5734 14.0062 49.1308 12.4274C48.4023 11.9565 48.376 11.9207 48.2267 11.189C47.9589 9.87591 47.0579 8.77969 45.7825 8.21565C45.3028 8.00335 45.2145 7.90523 45.1408 7.50231C44.9507 6.46212 44.0223 5.39902 42.7742 4.79202C42.0425 4.43603 40.6929 4.21838 39.8422 4.31912C39.2768 4.3861 39.2345 4.37029 39.0556 4.02414C38.9515 3.82293 38.6333 3.42536 38.3486 3.14059C37.1281 1.92011 35.1714 1.54607 33.3766 2.19018ZM36.1559 3.51513C36.7102 3.68123 37.8521 4.68257 37.8521 5.00257C37.8521 5.16543 37.7774 5.17502 37.3647 5.06483C36.7188 4.8925 35.9311 5.12696 35.4591 5.63224C35.2646 5.84042 35.125 6.03031 35.1488 6.05409C35.1726 6.07787 35.4102 5.98623 35.6769 5.85026C35.9435 5.71429 36.2953 5.6031 36.4588 5.6031C36.8576 5.6031 37.5097 5.92335 37.8514 6.28718L38.1299 6.58364L38.5825 6.2883C39.8533 5.45891 42.0715 5.71267 43.1049 6.80565C43.6172 7.34766 43.8907 8.25437 43.4271 7.87423C43.3398 7.80276 43.0267 7.67949 42.7312 7.60055C41.8435 7.3631 40.965 7.81322 40.965 8.50526C40.965 8.6954 41.0493 8.73225 41.4319 8.70922C42.1491 8.66601 42.2744 8.69502 42.65 8.99049C42.9207 9.20341 43.172 9.26679 43.77 9.27314C45.397 9.29045 46.8171 10.488 46.8171 11.8429C46.8171 12.1775 46.7804 12.4513 46.7354 12.4513C46.6906 12.4513 46.4766 12.3161 46.26 12.1509C45.5071 11.5766 44.4304 11.4835 44.1317 11.9667C44.0647 12.0753 44.1015 12.0954 44.2575 12.0355C44.5923 11.907 45.4141 12.1748 45.6296 12.4826C45.735 12.6329 45.821 12.9459 45.821 13.1784C45.821 13.5595 45.8485 13.5924 46.1012 13.5138C46.8632 13.2768 47.674 13.2936 48.2198 13.5578C49.4363 14.1467 50.428 15.4259 50.428 16.4062C50.428 17.2451 49.9006 17.6505 49.7429 16.9328C49.543 16.0223 48.1453 16.1195 48.1453 17.0439C48.1453 17.3708 48.2961 17.5813 49.028 18.2755C49.6793 18.8934 49.9456 19.2433 50.0441 19.6109C50.3218 20.6472 50.1653 21.6133 49.5951 22.3813C49.2165 22.8913 49.0584 22.8942 49.0584 22.3911C49.0584 21.8652 48.7448 21.5408 48.2368 21.5408C47.5898 21.5408 47.4216 21.8926 47.5178 23.0445C47.5778 23.7649 47.547 24.1433 47.3895 24.6172C46.9817 25.8452 45.8543 26.7664 44.7626 26.7637C44.2947 26.7626 44.2797 26.7515 44.5136 26.58C45.0773 26.1671 45.323 25.8554 45.323 25.5532C45.323 25.1039 44.9838 24.7782 44.516 24.7782C44.0924 24.7782 43.809 25.0224 43.3596 25.7743C42.5538 27.1227 41.0074 27.6582 39.8302 26.9965C39.2479 26.6693 39.2156 26.5214 39.7261 26.5214C40.1861 26.5214 40.7818 26.2311 40.8877 25.9555C41.1687 25.2231 40.7511 24.933 39.7283 25.15C38.8519 25.3359 38.2385 25.193 37.4666 24.6229L36.9183 24.2179L37.5442 24.2584C38.266 24.3052 38.5419 24.0994 38.6795 23.4119C38.7577 23.0207 38.745 23.0004 38.468 23.0729C37.888 23.2245 37.146 22.9178 36.549 22.2796C36.2384 21.9476 35.9844 21.5615 35.9844 21.4217C35.9844 21.106 36.0345 21.1053 36.4563 21.4146C36.642 21.5507 36.9702 21.6966 37.1859 21.7389C37.5117 21.8029 37.6464 21.7507 37.9826 21.4294C38.4727 20.961 38.5707 20.9515 38.725 21.3573C38.8989 21.8149 39.165 21.8591 39.8409 21.5425C40.731 21.1256 40.9477 21.3629 40.4358 22.1945L40.1556 22.6498L40.5914 22.4268C40.8626 22.2881 41.1683 21.9627 41.4008 21.5652C41.8036 20.8766 42.1582 20.7301 42.2769 21.2033C42.3162 21.3601 42.2877 21.6479 42.2135 21.8432C42.0171 22.3598 42.137 22.3671 42.5221 21.8621C42.7399 21.5767 42.8878 21.1923 42.9394 20.7777C43.0939 19.5382 43.8243 19.6978 43.8331 20.9732C43.8375 21.5822 43.8435 21.5928 44.0156 21.2918C44.2297 20.9173 44.2554 19.8623 44.0636 19.3125C43.9497 18.9856 43.9608 18.8751 44.1259 18.6927C44.3845 18.4068 44.3834 17.6546 44.1234 17.1455C44.0114 16.9264 43.4748 16.2816 42.9309 15.7127C41.9616 14.6991 41.9458 14.6723 42.1383 14.3786C42.4763 13.8625 42.3137 13.1826 41.7248 12.6497C41.5626 12.5029 41.463 12.2611 41.463 12.0142C41.463 11.1136 39.9945 9.89123 38.2257 9.31921C37.6364 9.1287 37.01 9.04628 35.9222 9.01627L34.428 8.9748L35.5486 9.13692C37.3349 9.39541 38.5711 9.99233 39.2052 10.9026C39.6455 11.5347 39.5694 11.7231 38.8917 11.6794L38.3126 11.642L39.0981 11.936C40.2022 12.3492 40.8461 12.9768 40.93 13.7216C40.989 14.245 40.9696 14.3016 40.7187 14.3396C40.4756 14.3763 40.511 14.4295 41.0113 14.7809C41.6542 15.2322 41.8819 15.7546 41.5436 16.002C41.2385 16.2251 41.285 16.2749 41.8819 16.3644C42.2096 16.4136 42.5328 16.5604 42.6962 16.7342C43.029 17.0886 43.1599 17.8001 42.9608 18.1723C42.8247 18.4265 42.7955 18.4329 42.5951 18.2516C42.3152 17.9983 41.8848 17.9982 41.7876 18.2514C41.746 18.3598 41.7121 18.6427 41.7121 18.8801C41.7121 19.4475 41.402 20.0288 41.0224 20.1731C40.5456 20.3544 40.3424 20.2054 40.3424 19.675C40.3424 19.1227 40.038 18.7611 39.9107 19.1621C39.8161 19.4605 39.3757 19.6278 39.1856 19.4377C39.0878 19.3399 39.1086 19.1791 39.2604 18.8608C39.6261 18.0939 39.5148 17.7905 38.8022 17.6116C38.4637 17.5266 38.4493 17.4948 38.5089 16.9655C38.5434 16.6593 38.5205 16.2234 38.4579 15.9968C38.3298 15.5327 37.383 14.6018 37.4607 15.0163C37.6527 16.0392 37.3804 16.9541 36.8324 17.1281C36.4688 17.2435 36.2962 16.9982 36.2922 16.3606C36.2884 15.7466 36.086 15.5153 35.6731 15.653C35.5362 15.6987 35.284 15.7394 35.1128 15.7435C34.8142 15.7507 34.7984 15.7126 34.7255 14.816C34.566 12.8554 33.3928 11.5781 31.1369 10.9089C30.1413 10.6134 30.0907 10.6418 30.522 11.2538C31.0369 11.9843 31.1294 12.7589 30.758 13.2296C30.3928 13.6924 30.176 13.6604 29.9135 13.105C29.7067 12.6678 29.6574 12.6381 29.1343 12.6381C28.6048 12.6381 28.574 12.6188 28.5404 12.2646C28.4792 11.6226 28.2437 11.336 27.4635 10.9543C25.8442 10.1624 23.5544 10.1314 21.4786 10.8735L20.9805 11.0516L21.8098 10.9883C23.5697 10.8538 25.4212 11.6781 26.0057 12.8564C26.2044 13.2572 26.273 13.5523 26.2182 13.7707L26.1373 14.0932L25.6134 13.5364C25.0795 12.969 24.3903 12.5554 23.7198 12.4002L23.3463 12.3138L23.7948 12.6236C24.3275 12.9915 24.5608 13.4887 24.5065 14.1405L24.4669 14.6165L24.1154 14.0832C23.5932 13.2907 22.6965 12.9135 21.3698 12.9281C20.8133 12.9342 20.1058 13.02 19.7977 13.1187L19.2373 13.2983L19.8599 13.3111C20.7084 13.3285 21.2523 13.671 21.3623 14.2567C21.4701 14.8313 21.3637 14.9281 21 14.5864C20.1538 13.7914 18.1432 14.0588 16.5083 15.1837C15.0385 16.1949 12.9169 18.5103 12.2448 19.8368C11.8482 20.6193 11.9264 20.839 12.3723 20.1955C13.2962 18.8622 14.8847 17.7081 16.0987 17.4878C16.694 17.3798 17.5822 17.6985 17.8576 18.1188C18.1476 18.5615 18.0983 18.6851 17.7121 18.4837C17.2415 18.2381 16.3251 18.2523 16.041 18.5096C15.6972 18.8207 15.7632 18.9261 16.3017 18.9261C17.4712 18.9261 18.2171 20.511 17.5056 21.4841C17.3431 21.7062 17.3231 21.6951 17.1507 21.2878C16.8835 20.6558 16.5229 20.3862 15.9443 20.3862C15.465 20.3862 14.8171 20.6857 14.8171 20.9073C14.8171 20.9666 15.0136 21.052 15.2539 21.097C15.8874 21.2159 16.1431 21.6518 15.9523 22.2883C15.7583 22.936 15.6308 22.9887 15.1786 22.6082C14.7276 22.2287 14.3194 22.2085 13.6106 22.5302C13.0382 22.7901 11.9533 23.7269 11.9533 23.9614C11.9533 24.0426 12.1187 24.2674 12.3207 24.4611C12.734 24.857 12.8842 25.3456 12.7626 25.8988C12.6795 26.2773 12.4514 26.4209 12.4514 26.0947C12.4514 25.8361 11.8241 25.3836 11.5248 25.4264C11.1732 25.4766 11.2027 25.7499 11.5798 25.9369C11.9755 26.1333 12.0433 26.6316 11.7276 27.0217L11.4894 27.3158L11.3434 27.0431C11.001 26.4034 10.0698 26.9383 9.5264 28.0868C8.40777 30.4514 9.09509 34.7821 11.1601 38.3806C12.4593 40.6446 14.8409 43.422 16.9219 45.1002C19.2921 47.0116 22.3049 48.678 24.8807 49.5021C25.6561 49.7502 26.2673 49.9766 26.2385 50.0053C26.2099 50.0339 25.657 49.9199 25.01 49.7518C18.8177 48.1428 12.6681 43.8385 9.43227 38.8482C7.56083 35.9623 6.72933 33.2939 6.72572 30.1625C6.71837 23.9304 9.7839 17.0815 14.8204 12.0778C18.1145 8.80509 21.7957 6.67168 25.8668 5.67606C27.0026 5.3984 27.125 5.33689 27.7481 4.73138C28.991 3.52335 30.2014 3.27519 31.7693 3.90685L32.5968 4.2403L33.0483 3.97384C34.0297 3.39485 35.1851 3.22427 36.1559 3.51513ZM28.4598 15.7396C26.6783 16.9666 25.1644 19.2148 24.5116 21.6031C24.1284 23.0052 24.1058 25.8866 24.4669 27.3307C24.6039 27.8786 24.7016 28.1868 24.6842 28.0156C24.4312 25.5345 24.5799 24.1696 25.289 22.4645C26.0799 20.5627 27.938 18.3645 29.5136 17.467C30.3595 16.9851 31.6108 16.5582 32.1516 16.5668C32.5159 16.5726 32.4776 16.604 31.7993 16.8561C30.6473 17.2843 29.9204 17.7587 29.0198 18.6699C28.0367 19.6644 27.483 20.568 27.013 21.9441C26.0375 24.7996 26.3385 28.2369 27.8382 31.3695C28.6514 33.0679 29.4025 34.1299 30.7491 35.4853C33.3415 38.0943 36.9518 39.858 41.3385 40.6585C43.6842 41.0866 43.9272 41.195 42.5657 41.2055C40.2277 41.2238 36.963 40.7272 34.677 40.0055C27.4998 37.7392 22.6103 31.9582 22.3247 25.4008C22.2133 22.8467 22.6841 20.8434 23.8258 19.0116C24.8362 17.3906 26.719 15.905 28.4477 15.365C29.2175 15.1245 29.2203 15.2158 28.4598 15.7396ZM46.4134 33.3548C47.6257 34.0827 48.7071 34.5051 49.5472 34.5788C50.1902 34.6352 50.3329 34.5935 51.4864 34.0126C52.7686 33.3669 53.405 32.9337 54.8089 31.751L55.6218 31.0661L55.1314 32.249C54.8597 32.9045 54.6112 33.739 54.5742 34.1207C54.5142 34.7388 54.5418 34.8505 54.8443 35.21C55.2879 35.7371 55.1455 35.7897 53.4988 35.7065C52.6434 35.6634 52.3545 35.6792 52.607 35.7554C53.3176 35.9699 55.0802 35.9248 56.0494 35.6673L56.965 35.4241L56.5292 35.7064C55.938 36.0891 54.7369 36.4496 53.5614 36.597C52.3591 36.7478 50.4545 36.5239 49.0015 36.0611C48.4565 35.8874 47.99 35.766 47.9649 35.7913C47.9397 35.8165 48.3295 36.0383 48.8311 36.2844C50.7473 37.2241 52.9154 37.4749 54.8489 36.9804C55.3848 36.8433 55.8463 36.7543 55.8747 36.7826C55.9669 36.8747 54.3585 37.586 53.7238 37.734C52.7674 37.9567 50.8638 37.9312 49.93 37.6832C48.0513 37.1839 46.8288 36.3568 45.6884 34.8136C44.6706 33.4363 44.6653 33.4328 45.1795 34.4903C45.5217 35.1936 45.895 35.6878 46.6924 36.4931C47.6232 37.433 47.8593 37.6015 48.6486 37.8892C49.1423 38.0693 49.9234 38.2823 50.3843 38.3625C51.3936 38.5383 53.1392 38.4428 53.9027 38.17C54.6374 37.9074 54.7187 38.0348 54.0151 38.3461C52.9517 38.8164 51.832 39.0014 50.3917 38.9445C49.1143 38.8941 48.9991 38.8664 48.057 38.3852L47.066 37.8788L46.8287 38.4152C46.6983 38.7102 46.4601 39.0204 46.2996 39.1047C46.0192 39.252 46.016 39.2487 46.217 39.0218C46.6343 38.5507 46.7235 38.0936 46.5082 37.5299C46.3992 37.2445 46.2075 36.9182 46.082 36.8046C45.8666 36.6097 45.8498 36.6176 45.78 36.9451C45.6519 37.5467 45.2241 38.0878 44.5211 38.5376C43.6152 39.1169 43.4606 39.0878 44.1363 38.4649C44.8827 37.7768 45.1667 37.0341 44.9543 36.3251L44.7976 35.8023L44.5729 36.2357C44.234 36.8898 43.6179 37.4171 42.5437 37.973C41.315 38.6088 40.9472 38.6229 41.9107 37.9973C42.8923 37.3598 43.5465 36.6772 43.8996 35.9222C44.2144 35.2489 44.4265 34.2353 44.2494 34.2508C44.1893 34.2561 43.8578 34.6896 43.5126 35.2142C42.5102 36.7384 41.0195 37.7589 39.5331 37.9387C39.0353 37.9989 39.0354 37.9987 39.7821 37.6301C40.7418 37.1564 41.7685 36.1244 42.2246 35.1751C42.6826 34.2214 42.6848 33.9398 42.2292 34.5688C41.6717 35.3382 40.7416 36.0873 39.7531 36.5627C38.6611 37.088 38.323 37.0595 39.1721 36.5137C39.9512 36.0128 40.7468 35.189 41.0662 34.5525L41.3162 34.0545L40.666 34.6495C39.5372 35.683 38.249 36.3898 37.2918 36.5013C36.9693 36.5388 37.0119 36.4912 37.6031 36.1534C37.9798 35.9381 38.456 35.5815 38.6615 35.3609L39.035 34.9598L38.3794 35.2884C37.461 35.7487 36.3068 36.0238 35.6872 35.9301C34.6963 35.7802 34.7737 35.6582 36.1249 35.2397C38.4179 34.5296 40.4603 33.3247 42.2444 31.6294L43.2685 30.6564L44.3891 31.7344C45.0054 32.3272 45.9164 33.0565 46.4134 33.3548ZM19.4915 24.2801C19.4965 26.179 19.5042 26.2321 19.9638 27.5751C20.8682 30.2173 22.3407 32.4213 24.7953 34.8072C29.0996 38.9907 34.023 41.3058 39.9951 41.9542C44.2733 42.4189 51.0766 41.5179 55.7498 39.8678C56.5197 39.5959 57.1216 39.4189 57.0874 39.4743C56.9788 39.65 54.7692 40.7929 53.5409 41.3086C49.9313 42.8242 46.6656 43.4672 42.5837 43.4658C37.8994 43.4642 33.9378 42.5529 29.821 40.5298C23.3203 37.335 19.4053 32.6072 18.6671 27.0602C18.406 25.0977 18.7608 22.8263 19.5713 21.2739L19.9844 20.4825L19.7354 21.4163C19.5357 22.1652 19.4874 22.7326 19.4915 24.2801ZM17.1993 27.8661C17.305 29.9349 17.6468 31.2461 18.5528 33.0584C20.2599 36.473 23.6699 39.5957 28.1368 41.835C32.3275 43.9356 39.0663 45.3837 46.6926 45.8224C48.028 45.8992 49.4288 45.9943 49.8054 46.0338L50.4903 46.1056L49.8677 46.2746C47.1558 47.0107 41.6136 47.1954 37.5408 46.6855C32.2306 46.0207 27.1397 44.0441 23.3127 41.1612C21.8129 40.0315 19.8302 37.9892 18.9488 36.6666C18.0202 35.273 17.2321 33.5848 16.9066 32.2923C16.6802 31.3932 16.6287 30.8358 16.6259 29.2607C16.6228 27.4672 16.8288 25.8767 17.0371 26.0851C17.0784 26.1264 17.1515 26.9279 17.1993 27.8661ZM15.1192 35.5486C15.8329 37.4435 17.0607 39.255 18.7946 40.9712C20.5949 42.7532 22.6648 44.0496 25.8988 45.4203C29.4522 46.9266 33.9475 47.9019 39.284 48.3244C41.1009 48.4682 46.6437 48.4038 47.5019 48.2289C47.7074 48.187 47.8391 48.192 47.7948 48.2401C47.6652 48.3804 46.2963 48.6694 44.0833 49.0237C42.2181 49.3223 41.6878 49.3542 38.4747 49.3616C34.7437 49.37 33.9296 49.2989 31.2533 48.7308C26.5929 47.7413 22.0709 45.4948 19.0808 42.6834C18.0179 41.6839 16.9482 40.4773 16.4801 39.7495C15.8087 38.7057 14.9866 36.8903 14.6336 35.6721C14.3117 34.5614 14.0369 32.7768 14.1578 32.5813C14.1964 32.5188 14.3545 32.9648 14.5094 33.5725C14.6642 34.18 14.9386 35.0693 15.1192 35.5486ZM35.065 18.5279C35.6369 18.8198 36.358 19.3904 36.358 19.5506C36.358 19.6081 36.0127 19.477 35.5908 19.2595C34.8943 18.9002 34.7195 18.8638 33.692 18.8638C32.7201 18.8638 32.4581 18.9117 31.8358 19.2032C30.748 19.7129 29.6611 20.8654 29.0422 22.1653C28.3688 23.5795 28.2067 24.3304 28.2229 25.9611C28.2384 27.5258 28.5802 28.9064 29.3117 30.359C31.2315 34.1711 35.9548 37.6095 41.3134 39.0955C45.333 40.2102 50.2356 40.3865 53.7289 39.542C54.3745 39.386 54.8769 39.3001 54.8453 39.3512C54.7432 39.5163 52.3898 40.2091 51.2373 40.4131C49.47 40.7262 46.5626 40.7801 44.4514 40.539C41.226 40.1707 38.6668 39.4406 35.9222 38.1054C31.7009 36.0522 29.1308 33.2333 28.1381 29.5682C27.7516 28.1416 27.6587 25.4487 27.9467 24.0249C28.5233 21.1744 30.0023 19.1965 32.1083 18.4591C33.1268 18.1027 34.2849 18.1295 35.065 18.5279ZM54.2587 42.9662C53.4026 43.4648 50.2059 44.347 48.1624 44.6483C46.6963 44.8645 44.0486 44.8385 43.2685 44.6003C42.9165 44.4927 42.9344 44.4817 43.5798 44.4105C43.9564 44.3691 44.7969 44.3026 45.4475 44.2627C47.7812 44.1203 52.1073 43.4346 53.6031 42.97C53.8086 42.9063 54.0887 42.851 54.2257 42.8471C54.4525 42.8409 54.4554 42.8515 54.2587 42.9662Z" fill="white" stroke="white" stroke-width="1.33333"/>
</svg>
