<svg width="64" height="64" viewBox="0 0 64 64" fill="none" xmlns="http://www.w3.org/2000/svg">
<g clip-path="url(#clip0_628_533)">
<path d="M50.7631 15.3186C48.8721 15.617 46.6184 16.7294 45.1085 18.1093C43.0674 19.9751 41.7031 22.6714 41.5065 25.2285L41.4263 26.2726H43.2285H45.0308L45.1879 25.2454C45.5511 22.8683 47.1133 20.7118 49.2505 19.6374C50.3397 19.0899 51.26 18.8823 52.607 18.8803C55.8869 18.8756 58.5281 20.7213 59.7114 23.8446C59.9587 24.4976 60.0572 25.0283 60.104 25.9613C60.1798 27.4719 59.9709 28.4871 59.3163 29.7892C58.7102 30.995 57.1763 32.534 56.0311 33.0853C54.2832 33.9271 56.4826 33.8679 26.9081 33.8679H0.124512V35.7379V37.6077L27.1751 37.5711C52.5281 37.5367 54.2765 37.5208 55.035 37.3156C58.1897 36.4623 60.3642 34.938 61.987 32.4427C66.0745 26.1574 62.9314 17.7514 55.6958 15.6176C54.4659 15.2549 52.0827 15.1104 50.7631 15.3186Z" fill="white" stroke="white" stroke-width="1.33333"/>
<path d="M15.1907 43.2666V45.0704L32.5292 45.1032L49.8677 45.136L50.428 45.4268C51.7844 46.1308 52.6655 47.4874 52.6655 48.8715C52.6655 50.6891 51.1642 52.3881 49.3586 52.6136C47.3799 52.8609 45.4454 51.4174 45.1358 49.4629L45.052 48.9337H43.2575H41.463V49.3634C41.463 50.1402 41.7268 51.0965 42.2339 52.1585C43.162 54.1023 45.2097 55.7163 47.2902 56.1443C49.7732 56.655 52.3204 55.8938 54.1072 54.107C55.5513 52.6629 56.2802 50.9068 56.2802 48.8715C56.2802 47.603 56.0938 46.8084 55.5093 45.5844C54.5812 43.6406 52.5336 42.0266 50.4531 41.5986C49.9953 41.5045 44.4928 41.4629 32.492 41.4629H15.1907V43.2666Z" fill="white" stroke="white" stroke-width="1.33333"/>
<path d="M28.5759 11.5748C26.3153 12.0624 24.3338 13.6833 23.3371 15.8603C23.0319 16.5271 22.668 17.967 22.6636 18.5245L22.6615 18.8079L24.4947 18.7736L26.328 18.7391L26.4178 18.212C26.6184 17.0355 27.484 15.9005 28.54 15.4295C29.0406 15.2062 29.4223 15.1356 30.1323 15.1346C31.2723 15.133 31.9933 15.4259 32.7741 16.2077C33.6108 17.0454 33.8055 17.5473 33.8055 18.8669C33.8055 20.2629 33.4965 20.9586 32.5251 21.7505C31.3556 22.7038 31.9817 22.6612 19.1524 22.6612H7.71985V24.4691V26.277L19.7043 26.2434L31.6887 26.2099L32.6078 25.8743C34.8595 25.052 36.5504 23.2724 37.2575 20.9803C37.6295 19.7744 37.6301 17.9569 37.259 16.7468C36.5724 14.5085 34.7699 12.6272 32.5678 11.8507C31.606 11.5117 29.533 11.3684 28.5759 11.5748Z" fill="white" stroke="white" stroke-width="1.33333"/>
<path d="M14.7408 2.11457C12.7016 2.42038 10.523 3.67635 9.3735 5.20886C7.52087 7.67871 7.1213 10.5504 8.22101 13.4898C8.51013 14.2625 8.58372 14.3137 10.1406 14.8254C12.8677 15.7217 16.1554 14.8532 18.3168 12.6656C19.7389 11.2264 20.4956 9.54604 20.6283 7.53303C20.7161 6.20111 20.5374 5.01151 20.0696 3.81331C19.7503 2.99551 19.7075 2.94632 19.1128 2.71348C17.7311 2.1726 15.9665 1.93079 14.7408 2.11457Z" fill="white" stroke="white" stroke-width="1.33333"/>
<path d="M5.72763 50.8101C4.83923 50.9652 3.16539 51.5206 3.01212 51.7112C2.72063 52.0738 2.24001 53.752 2.1389 54.7606C1.97031 56.4408 2.19257 57.6717 2.94276 59.2136C3.97249 61.33 6.02846 62.9919 8.34242 63.5781C9.9677 63.99 12.2728 63.7792 13.6965 63.0888C14.1837 62.8525 14.2947 62.7212 14.5476 62.0826C15.7937 58.9345 15.0952 55.5547 12.704 53.1636C11.6996 52.1591 10.3928 51.3798 9.08925 51.0079C8.19811 50.7536 6.593 50.6592 5.72763 50.8101Z" fill="white" stroke="white" stroke-width="1.33333"/>
<path d="M35.7354 1.99222V3.85992H47.8755H60.0156V1.99222V0.124512H47.8755H35.7354V1.99222Z" fill="white" stroke="white" stroke-width="1.33333"/>
<path d="M43.3307 9.52517V11.3306H48.8716H54.4125V9.52517V7.71973H48.8716H43.3307V9.52517Z" fill="white" stroke="white" stroke-width="1.33333"/>
<path d="M18.9261 52.6072V54.4127H23.5953H28.2646V52.6072V50.8018H23.5953H18.9261V52.6072Z" fill="white" stroke="white" stroke-width="1.33333"/>
<path d="M5.85214 43.2683V45.0738H8.59144H11.3307V43.2683V41.4629H8.59144H5.85214V43.2683Z" fill="white" stroke="white" stroke-width="1.33333"/>
<path d="M32 52.6072V54.4127H33.8677H35.7354V52.6072V50.8018H33.8677H32V52.6072Z" fill="white" stroke="white" stroke-width="1.33333"/>
</g>
<defs>
<clipPath id="clip0_628_533">
<rect width="64" height="64" fill="white"/>
</clipPath>
</defs>
</svg>
