<svg width="64" height="64" viewBox="0 0 64 64" fill="none" xmlns="http://www.w3.org/2000/svg">
<path d="M7.98352 7.36094L4.81552 8.74663L5.07443 33.2218L5.33334 57.6969H32H58.6667L58.9256 33.2325L59.1845 8.767L55.7741 7.34251C52.7796 6.09063 51.9496 6.08966 48.9697 7.33475C45.9801 8.58469 45.1607 8.57984 42.0946 7.29887C39.6402 6.27294 38.0849 6.12651 36.8242 6.80045C34.527 8.03003 29.473 8.03003 27.1758 6.80045C25.9152 6.12651 24.3598 6.27294 21.9055 7.29887C18.8073 8.59342 18.0383 8.59148 14.912 7.2853C12.9804 6.47851 11.3435 5.85403 11.2756 5.89766C11.2078 5.94033 9.72607 6.59972 7.98352 7.36094ZM56.5169 14.4349C58.0829 14.5348 58.2196 15.5636 57.9714 25.376C57.7969 32.2579 57.3023 36.3365 56.6148 36.5643C56 36.768 55.2689 35.2756 54.9236 33.1132C54.5707 30.9081 53.6466 29.0463 52.7312 28.6952C50.9353 28.0058 48.4849 29.663 48.4849 31.5665C48.4849 32.2637 47.5035 32.9745 46.303 33.1442C44.5508 33.3934 44.0621 34.1701 43.8206 37.087C43.5093 40.8407 43.5869 40.7864 36.6895 42.1275C35.7527 42.3098 34.8761 41.6756 34.5988 40.6148C33.9433 38.1081 30.6114 38.3146 28.8485 40.9697C27.4948 43.0099 26.7161 43.1515 16.8514 43.1515H6.30304L6.0354 28.9192C5.76873 14.7578 5.77843 14.6851 7.97479 14.3738C9.92292 14.0974 52.0659 14.1508 56.5169 14.4349ZM18.6667 8.99972C21.2005 8.92021 24.1455 8.85524 25.2121 8.85524C26.2788 8.85524 29.3333 8.85524 32 8.85524C34.6667 8.85524 37.6126 8.82324 38.5455 8.78348C39.4793 8.74372 42.049 8.97451 44.256 9.29548C46.464 9.61742 49.1326 9.41863 50.1867 8.85427C52.4015 7.6693 58.1818 9.38372 58.1818 11.2252C58.1818 12.0232 50.9236 12.3287 32 12.3287C12.7312 12.3287 5.81819 12.031 5.81819 11.2C5.81819 9.72021 10.7413 7.80215 12.6061 8.55657C13.4061 8.87948 16.1338 9.07924 18.6667 8.99972ZM51.7188 46.0606C51.6306 46.5939 52.0097 47.5733 52.5605 48.2366C53.2858 49.1112 52.9387 49.9481 51.3009 51.2746C49.2519 52.9328 48.8301 52.9687 46.8228 51.6538C44.2647 49.9782 44.3501 50.2535 45.4769 47.2892C46.1198 45.6009 47.0759 45.0104 49.1132 45.0443C50.6347 45.0695 51.807 45.5272 51.7188 46.0606ZM23.1855 49.8337C24.0853 50.9188 23.7013 51.3929 21.2199 52.2579C17.249 53.6417 16.4849 53.6126 16.4849 52.0727C16.4849 48.8688 21.1035 47.3251 23.1855 49.8337ZM53.1423 34.1333C53.3479 36.544 52.9862 37.7445 51.9302 38.1488C50.7045 38.6191 50.4243 37.9044 50.4243 34.3127C50.4243 28.9638 52.6875 28.8145 53.1423 34.1333ZM48.4849 37.3905C48.4849 38.848 47.9263 39.7575 47.0303 39.7575C45.5787 39.7575 44.9474 35.8613 46.1954 34.6123C47.295 33.5127 48.4849 34.9575 48.4849 37.3905ZM34.9091 51.8788C34.9091 52.6788 34.2546 53.3333 33.4546 53.3333C32.6546 53.3333 32 52.6788 32 51.8788C32 51.0788 32.6546 50.4242 33.4546 50.4242C34.2546 50.4242 34.9091 51.0788 34.9091 51.8788ZM13.0492 52.2967C13.7668 53.4574 11.9428 54.6065 10.6512 53.8085C9.56607 53.1384 10.2788 51.3939 11.6364 51.3939C12.1067 51.3939 12.7428 51.8002 13.0492 52.2967ZM29.8386 49.6368C29.2393 51.4346 27.1515 51.7323 27.1515 50.0198C27.1515 49.1762 27.8429 48.4848 28.6866 48.4848C29.5312 48.4848 30.0499 49.0026 29.8386 49.6368ZM32.9697 41.6969C32.9697 42.2303 32.3152 42.6666 31.5152 42.6666C30.7152 42.6666 30.0606 42.2303 30.0606 41.6969C30.0606 41.1636 30.7152 40.7272 31.5152 40.7272C32.3152 40.7272 32.9697 41.1636 32.9697 41.6969Z" fill="white" stroke="white" stroke-width="1.33333"/>
<path d="M23.7139 20.8049C21.2005 23.3174 20.4587 28.4364 22.4301 29.6544C23.8196 30.5135 34.5968 25.2161 35.3988 23.2815C36.2279 21.2781 32.4325 18.4243 28.9396 18.4243C27.2107 18.4243 25.1588 19.3591 23.7139 20.8049ZM32.6943 21.9443C33.1365 23.2941 24.5838 28.4461 23.2591 27.6277C21.8463 26.755 22.0742 25.7649 24.3549 22.8655C25.9239 20.8699 27.1021 20.3269 29.3711 20.5528C31.0012 20.7157 32.4975 21.3412 32.6943 21.9443Z" fill="white" stroke="white" stroke-width="1.33333"/>
</svg>
