<svg width="80" height="81" viewBox="0 0 80 81" fill="none" xmlns="http://www.w3.org/2000/svg">
<path d="M53.5938 5.60952C53.375 5.64077 52.5469 5.81264 51.7344 5.98452C42.0938 8.12514 35.375 17.3908 36.375 27.172C36.5625 29.0783 37.125 31.4376 37.6562 32.6564C37.8281 33.047 37.9531 33.3751 37.9375 33.4064C37.9062 33.422 34.375 34.1251 30.0781 34.9533C25.7812 35.7814 22.1094 36.5001 21.9219 36.547L21.5625 36.6251V29.9845C21.5625 26.3283 21.625 23.297 21.6875 23.2501C21.75 23.2189 24.2031 22.7189 27.1094 22.1564C30.0312 21.5939 32.6562 21.0158 32.9375 20.8908C33.4844 20.6408 33.9062 19.8908 33.9062 19.2033C33.9062 18.6251 33.25 17.7814 32.6406 17.5783C32.1719 17.422 31.3125 17.5626 25.7188 18.6408C22.2031 19.3126 19.2031 19.9064 19.0469 19.9533C18.8906 20.0001 18.5781 20.2658 18.3594 20.5158L17.9688 21.0001V36.5314C17.9688 45.0783 17.9219 52.0626 17.875 52.0626C17.8281 52.0626 17.5625 51.8908 17.2969 51.6876C15.7031 50.4845 13.5625 49.8283 11.3281 49.8126C8.34375 49.8126 6.1875 50.7033 4.0625 52.8439C1.96875 54.922 1.04688 57.1408 1.03125 60.0314C1.03125 61.8908 1.25 62.8595 2.125 64.672C3.28125 67.0783 5.3125 68.8751 8 69.8439C9.03125 70.2189 9.34375 70.2658 11.3281 70.2658C13.4062 70.2501 13.5781 70.2345 14.7969 69.7658C16.4531 69.1408 17.5469 68.3908 18.7812 67.0939C19.9375 65.8595 20.4844 64.9689 21.0625 63.422L21.4844 62.297L21.5312 51.3126C21.5469 45.2814 21.6094 40.3439 21.6562 40.3439C21.7031 40.3439 25.7344 39.5626 30.5938 38.6251C35.4688 37.672 39.5625 36.9064 39.7031 36.9064C39.8438 36.9064 40.2656 37.297 40.625 37.7658C42.1875 39.7814 44.8438 41.9376 47.3438 43.2033C49.4375 44.2501 52.8906 45.1876 54.75 45.1876C56.375 45.1876 56.25 44.9064 56.25 48.7345V52.0783L55.5938 51.6251C53.75 50.3751 51.9375 49.8126 49.6875 49.8126C46.7812 49.8126 44.4062 50.7814 42.4375 52.7658C40.4531 54.7658 39.5312 56.8126 39.4062 59.5001C39.2656 62.6251 40.2188 65.1251 42.4062 67.3126C43.8125 68.7189 45.4531 69.6564 47.3438 70.1251C48.7031 70.4689 51.3906 70.3595 52.8125 69.8908C55.375 69.0783 57.6094 67.1408 58.8125 64.7033C59.9688 62.3751 60 62.0314 60 52.8595V44.922L61.2969 44.5783C67.7969 42.8595 72.9688 37.9533 75.0781 31.5158C78.1406 22.1876 73.9375 12.0939 65.125 7.60952C62.1875 6.12514 59.4375 5.48452 56.0312 5.51577C54.9062 5.53139 53.8125 5.56264 53.5938 5.60952ZM59.3906 9.50014C64.5156 10.547 69.0469 14.2345 71.0781 19.0314C72.0469 21.3126 72.2656 22.5001 72.25 25.422C72.25 27.6095 72.1875 28.2814 71.9062 29.2814C70.1875 35.5314 65.4844 39.9689 59.1406 41.297C58.625 41.4064 57.2969 41.5001 56.1719 41.5001C55.0625 41.5001 53.7188 41.4064 53.2031 41.297C46.8906 39.9689 42.1406 35.5001 40.4375 29.2814C39.9375 27.4845 39.9375 23.297 40.4375 21.4845C41.2344 18.5314 42.4844 16.3283 44.5312 14.1876C48.4375 10.1251 53.9688 8.37514 59.3906 9.50014ZM13.9844 54.0626C16.0312 55.0314 17.4375 56.8908 17.8125 59.1095C18.2656 61.7814 16.75 64.6876 14.25 65.9533C10.9688 67.6095 7.03125 66.2658 5.375 62.922C3.85938 59.8595 5 56.1095 7.98438 54.3595C9.73438 53.3283 12.1562 53.2189 13.9844 54.0626ZM51.6094 53.7814C55.3594 54.9376 57.2969 59.2501 55.6406 62.7814C54.3906 65.4533 51.5 67.047 48.7344 66.6095C43.4531 65.7501 41.25 59.547 44.8438 55.6095C46.5625 53.7345 49.1719 53.0314 51.6094 53.7814Z" fill="black"/>
<path d="M56.6875 15.9066C55.8593 16.3441 55.5468 17.5472 56.0156 18.4535C56.3906 19.2035 57.0781 19.4066 59.2031 19.4066C60.25 19.4066 61.0937 19.4379 61.0937 19.4847C61.0937 19.5316 59.9843 21.1879 58.625 23.1879C57.2656 25.1879 56.0625 26.9847 55.9687 27.1722C55.5156 28.016 55.9062 29.2035 56.7812 29.6254C57.5468 29.9847 64.7656 30.0004 65.5312 29.641C66.4843 29.1879 66.8437 27.9691 66.2968 27.0472C65.8593 26.2972 65.25 26.1254 63.1406 26.1254C62.0937 26.1254 61.25 26.0785 61.25 26.0316C61.25 25.9847 62.4218 24.2191 63.8437 22.1097C66.6562 17.9691 66.8593 17.5316 66.3125 16.6097C65.7812 15.7191 65.4531 15.6566 61.0625 15.6566C57.875 15.6722 57.0312 15.7191 56.6875 15.9066Z" fill="black"/>
<path d="M46.9531 24.625C45.9219 25.0781 45.5 26.2344 46 27.1875C46.3281 27.8281 46.7656 28.0469 47.8594 28.1563L48.7656 28.2344L47.3281 30.3281C45.7656 32.6094 45.5625 33.2188 46 34.0625C46.4531 34.9375 46.8438 35.0312 50.0625 35.0312C52.9219 35.0312 52.9531 35.0312 53.4219 34.6406C54.0625 34.0938 54.2813 33.375 54.0313 32.6094C53.7656 31.8125 53.2344 31.4531 52.1406 31.3125L51.25 31.2031L52.6406 29.125C53.4063 27.9844 54.0781 26.8906 54.125 26.6875C54.2656 26.125 53.8906 25.1875 53.3906 24.8125C52.9844 24.5156 52.7031 24.4844 50.1875 24.4375C48.1094 24.4219 47.3125 24.4531 46.9531 24.625Z" fill="black"/>
</svg>
