<svg width="80" height="81" viewBox="0 0 80 81" fill="none" xmlns="http://www.w3.org/2000/svg">
<path d="M36.3594 12.6093C20.0313 14.8437 9.07813 30.375 12.5313 46.4375C13.6563 51.6875 16.2813 56.4843 20.1406 60.3593C22.5469 62.75 24.8438 64.375 27.9688 65.875C37.9375 70.6562 49.7031 69.0937 58.25 61.8593C65.2344 55.9531 68.9531 46.6406 67.9531 37.5625C67.5781 34.0625 66.6875 31.0937 65.0469 27.8437C60.2188 18.25 50.4375 12.2968 39.6563 12.3906C38.6875 12.4062 37.2031 12.5 36.3594 12.6093ZM44.75 15.9687C54.8594 17.9687 62.5156 25.6562 64.5625 35.8437C65.0625 38.375 65.0625 42.625 64.5625 45.1562C62.5156 55.375 54.8594 63.0312 44.6563 65.0625C42.1094 65.5625 37.8594 65.5625 35.3438 65.0625C31.9688 64.3906 28.8281 63.0937 26.1563 61.3125C20.5313 57.5156 16.7969 51.8906 15.4375 45.1562C14.9375 42.625 14.9375 38.375 15.4375 35.8437C17.4844 25.6562 25.2813 17.8437 35.2656 15.9843C37.6719 15.5312 37.7813 15.5312 40.5469 15.5781C42.3125 15.6093 43.5469 15.7343 44.75 15.9687Z" fill="black"/>
<path d="M35.7187 30.2967C35.1406 30.4686 34.6875 30.7811 33.9687 31.4998C32.4687 33.0154 32.4844 32.9061 32.5312 40.7498L32.5781 47.2967L33.0312 48.2029C34 50.1717 36.375 51.2342 38.5156 50.6404C38.8594 50.5467 41.5 49.0936 44.375 47.4217C50.1875 44.0623 50.9687 43.4529 51.4844 41.8904C52.0312 40.2498 51.5 38.2186 50.2031 37.0467C49.4219 36.3436 39.375 30.5154 38.4687 30.2342C37.5781 29.9686 36.6875 29.9842 35.7187 30.2967ZM38.0937 33.4529C40.1094 34.4842 47.9531 39.1717 48.2656 39.5154C48.5625 39.8592 48.6094 40.0467 48.5469 40.5467C48.5 40.8904 48.3281 41.2967 48.1719 41.4529C48.0156 41.5936 45.5469 43.0779 42.6875 44.7186C37.9531 47.4529 37.4531 47.7186 36.9687 47.6248C36.6406 47.5623 36.2656 47.3279 36.0312 47.0467L35.625 46.5623V40.4373C35.625 34.3904 35.625 34.2811 35.9531 33.8748C36.5469 33.1248 37.2031 32.9998 38.0937 33.4529Z" fill="black"/>
</svg>
