<svg width="80" height="81" viewBox="0 0 80 81" fill="none" xmlns="http://www.w3.org/2000/svg">
<g clip-path="url(#clip0_690_593)">
<path d="M12.4375 0.702907C12.2812 0.812282 11.8281 1.51541 11.4218 2.28103L10.6718 3.65603L9.2031 4.45291C8.10935 5.06228 7.7031 5.37478 7.59372 5.68728C7.29685 6.51541 7.60935 6.90603 9.2031 7.78103L10.6562 8.59353L11.4687 10.0467C12.3437 11.6404 12.7343 11.9529 13.5625 11.656C13.875 11.5467 14.1875 11.1404 14.7812 10.0467L15.5937 8.59353L17.0468 7.78103C18.6406 6.90603 18.9531 6.51541 18.6562 5.68728C18.5468 5.37478 18.1406 5.06228 17.0468 4.45291L15.5781 3.64041L14.8281 2.28103C14.0156 0.781032 13.75 0.499782 13.125 0.499782C12.9062 0.499782 12.5937 0.593532 12.4375 0.702907ZM14.2968 5.76541C14.5937 5.90603 14.8437 6.07791 14.8437 6.12478C14.8437 6.17166 14.5937 6.34353 14.2968 6.48416C14 6.62478 13.6562 6.95291 13.5156 7.21853C13.2031 7.81228 13.0468 7.81228 12.7343 7.21853C12.6093 6.96853 12.2812 6.64041 12.0312 6.51541C11.4375 6.21853 11.4375 6.04666 12.0156 5.74978C12.2656 5.60916 12.625 5.24978 12.8125 4.92166L13.1562 4.32791L13.4531 4.92166C13.6406 5.28103 13.9843 5.60916 14.2968 5.76541Z" fill="black"/>
<path d="M36.5625 0.734375C28.7344 1.8125 21.7656 6.15625 17.5625 12.6094C16.7344 13.8906 15 17.2656 15 17.6094C15 17.7188 15.2656 17.9062 15.5938 18.0469C15.9062 18.1719 16.3906 18.4375 16.6406 18.6094L17.125 18.9219L17.7969 17.375C20.125 11.9688 25.125 7.14062 30.7812 4.82812C37.2344 2.17188 44.7969 2.48438 51.0469 5.625C55.7188 7.98438 60.1719 12.6719 62.2031 17.375L62.875 18.9219L63.3594 18.6094C63.6094 18.4375 64.0938 18.1719 64.4219 18.0469C64.7344 17.9062 65 17.7188 65 17.6094C65 17.2188 63.125 13.6562 62.2188 12.2969C56.5938 3.96875 46.4219 -0.609375 36.5625 0.734375Z" fill="black"/>
<path d="M66.1875 0.702907C66.0312 0.812282 65.5781 1.51541 65.1718 2.28103L64.4218 3.65603L62.9531 4.45291C61.8593 5.06228 61.4531 5.37478 61.3437 5.68728C61.0468 6.51541 61.3593 6.90603 62.9531 7.78103L64.4062 8.59353L65.2187 10.0467C65.8125 11.1404 66.125 11.5467 66.4531 11.656C67.2656 11.9529 67.6562 11.6404 68.5312 10.0467L69.3437 8.59353L70.7968 7.78103C72.3906 6.90603 72.7031 6.51541 72.4062 5.68728C72.2968 5.37478 71.8906 5.06228 70.7968 4.45291L69.3281 3.65603L68.5781 2.28103C67.7656 0.781032 67.5 0.499782 66.875 0.499782C66.6562 0.499782 66.3437 0.593532 66.1875 0.702907ZM68.0468 5.76541C68.3437 5.90603 68.5937 6.07791 68.5937 6.12478C68.5937 6.17166 68.3437 6.34353 68.0468 6.48416C67.75 6.62478 67.4062 6.95291 67.2656 7.21853C66.9531 7.81228 66.7968 7.81228 66.4843 7.21853C66.3593 6.96853 66.0312 6.64041 65.7812 6.51541C65.1875 6.21853 65.1875 6.04666 65.7656 5.74978C66.0156 5.60916 66.375 5.24978 66.5625 4.92166L66.9062 4.32791L67.2031 4.92166C67.3906 5.28103 67.7343 5.60916 68.0468 5.76541Z" fill="black"/>
<path d="M36.7969 5.73446C30.8906 6.68759 25.9375 9.68759 22.3594 14.4532C21.0469 16.2032 19.2031 19.8751 19.2187 20.7032C19.2187 20.8907 20.5625 21.5313 21.1562 21.6251C21.375 21.6563 21.5312 21.4376 21.8594 20.5782C24.3594 14.1876 29.5312 9.81259 36.2969 8.35946C38.0781 7.96884 41.9375 7.98446 43.75 8.35946C50.4531 9.79696 56.0156 14.5626 58.2031 20.7657C58.5469 21.7345 58.7187 21.7813 59.9687 21.2501C60.9375 20.8282 60.9375 20.7657 60.1562 18.8907C57.4375 12.3595 51.4844 7.46884 44.4062 5.96884C42.3906 5.53134 38.7344 5.42196 36.7969 5.73446Z" fill="black"/>
<path d="M4.93747 9.45291C4.78122 9.56228 4.3281 10.2654 3.92185 11.031L3.17185 12.406L1.7031 13.2029C0.609349 13.8123 0.203099 14.1248 0.0937244 14.4373C-0.203151 15.2654 0.109349 15.656 1.7031 16.531L3.15622 17.3435L3.96872 18.7967C4.84372 20.3904 5.23435 20.7029 6.06247 20.406C6.37497 20.2967 6.68747 19.8904 7.28122 18.7967L8.09372 17.3435L9.54685 16.531C11.1406 15.656 11.4531 15.2654 11.1562 14.4373C11.0468 14.1248 10.6406 13.8123 9.54685 13.2029L8.0781 12.406L7.3281 11.031C6.5156 9.53103 6.24997 9.24978 5.62497 9.24978C5.40622 9.24978 5.09372 9.34353 4.93747 9.45291ZM6.0156 13.781C6.15622 14.0467 6.49997 14.3748 6.79685 14.5154C7.09372 14.656 7.34372 14.8279 7.34372 14.8748C7.34372 14.9217 7.09372 15.0935 6.79685 15.2342C6.49997 15.3748 6.15622 15.7029 6.0156 15.9685C5.7031 16.5623 5.54685 16.5623 5.23435 15.9685C5.10935 15.7185 4.78122 15.3904 4.53122 15.2654C4.2656 15.1248 4.06247 14.9529 4.06247 14.8748C4.06247 14.7967 4.2656 14.6248 4.53122 14.4842C4.78122 14.3592 5.10935 14.031 5.23435 13.781C5.54685 13.1873 5.7031 13.1873 6.0156 13.781Z" fill="black"/>
<path d="M73.6875 9.45291C73.5312 9.56228 73.0781 10.2654 72.6718 11.031L71.9218 12.406L70.4531 13.2029C69.3593 13.8123 68.9531 14.1248 68.8437 14.4373C68.5468 15.2654 68.8593 15.656 70.4531 16.531L71.9062 17.3435L72.7187 18.7967C73.3125 19.8904 73.625 20.2967 73.9531 20.406C74.7656 20.7029 75.1562 20.3904 76.0312 18.7967L76.8437 17.3435L78.2968 16.531C79.8906 15.656 80.2031 15.2654 79.9062 14.4373C79.7968 14.1248 79.3906 13.8123 78.2968 13.2029L76.8281 12.406L76.0781 11.031C75.2656 9.53103 75 9.24978 74.375 9.24978C74.1562 9.24978 73.8437 9.34353 73.6875 9.45291ZM74.7656 13.781C74.8906 14.031 75.2187 14.3592 75.4687 14.4842C75.7343 14.6248 75.9375 14.7967 75.9375 14.8748C75.9375 14.9529 75.7343 15.1248 75.4687 15.2654C75.2187 15.3904 74.8906 15.7185 74.7656 15.9685C74.625 16.2342 74.4531 16.4373 74.375 16.4373C74.2968 16.4373 74.125 16.2342 73.9843 15.9685C73.8593 15.7185 73.5312 15.3904 73.2812 15.2654C73.0156 15.1248 72.8125 14.9529 72.8125 14.8748C72.8125 14.7967 73.0156 14.6248 73.2812 14.4842C73.5312 14.3592 73.8593 14.031 73.9843 13.781C74.125 13.5154 74.2968 13.3123 74.375 13.3123C74.4531 13.3123 74.625 13.5154 74.7656 13.781Z" fill="black"/>
<path d="M37.5781 10.6562C32.125 11.5156 27.375 14.9688 24.9062 19.875C24.1718 21.3594 23.8437 22.2812 24.0625 22.3438C24.1406 22.375 24.6406 22.7031 25.1406 23.0781L26.0625 23.75L26.4843 22.5625C28.0156 18.1719 31.5 14.9375 36.1718 13.5312C37.4375 13.1406 37.8125 13.1094 40 13.1094C42.1875 13.1094 42.5625 13.1406 43.8281 13.5312C48.5 14.9375 51.9843 18.1719 53.5156 22.5625L53.9375 23.75L54.8593 23.0781C55.3593 22.7031 55.8593 22.375 55.9375 22.3438C56.1718 22.2656 55.7968 21.2812 54.9218 19.5938C52.7187 15.3438 48.7812 12.2188 44.1406 11.0312C42.375 10.5938 39.2187 10.4062 37.5781 10.6562Z" fill="black"/>
<path d="M39.1406 15.8906C38.7656 16.25 38.75 16.375 38.75 18C38.75 19.625 38.7656 19.75 39.1406 20.1094C39.375 20.3594 39.7031 20.5 40 20.5C40.2969 20.5 40.625 20.3594 40.8594 20.1094C41.2344 19.75 41.25 19.625 41.25 18C41.25 16.375 41.2344 16.25 40.8594 15.8906C40.625 15.6406 40.2969 15.5 40 15.5C39.7031 15.5 39.375 15.6406 39.1406 15.8906Z" fill="black"/>
<path d="M33.2812 19.4531C32.6718 19.7656 32.4375 20.375 32.7031 21C33.0312 21.7656 34.1093 22.6875 34.6875 22.6875C35.3281 22.6875 35.9375 22.0781 35.9375 21.4375C35.9375 20.875 35.0156 19.7812 34.2656 19.4531C33.6562 19.2031 33.7656 19.2031 33.2812 19.4531Z" fill="black"/>
<path d="M45.7031 19.4688C44.9688 19.7812 44.0625 20.8906 44.0625 21.4375C44.0625 22.0781 44.6719 22.6875 45.3125 22.6875C45.875 22.6875 46.9688 21.7656 47.2812 21.0156C47.7344 19.9375 46.7812 19 45.7031 19.4688Z" fill="black"/>
<path d="M11.0469 20.1406C9.6875 20.6094 8.26562 22.1875 7.96875 23.5469C7.89062 23.9531 7.78125 24.0312 6.95312 24.2656C5.73438 24.5781 5.20312 24.875 4.51562 25.6094C3.53125 26.6406 3.20312 27.4375 3.20312 28.8594C3.20312 29.8125 3.28125 30.2812 3.54688 30.8281C3.96875 31.7656 4.98438 32.7812 5.92188 33.2187C6.625 33.5469 6.79688 33.5469 14.375 33.5469H22.1094L22.8906 33.125C24.5938 32.2187 25.5312 30.7187 25.5312 28.8594C25.5469 26.2656 23.5625 24.2656 20.8906 24.1562C20.2344 24.1406 19.7188 24.0312 19.5625 23.8906C19.0781 23.4687 18.2969 23.1562 17.75 23.1562C17.2656 23.1562 17.1719 23.0781 16.75 22.3281C16.2031 21.3594 15.5312 20.7344 14.5312 20.2969C13.5781 19.875 12 19.7969 11.0469 20.1406ZM13.5 22.5937C14.0781 22.8281 14.6562 23.5 14.7656 24.0469C14.8125 24.2344 14.875 24.5781 14.9219 24.7969C14.9688 25.0156 15.1562 25.3437 15.3281 25.5156C15.6094 25.7969 15.7656 25.8125 16.7188 25.7187L17.7812 25.625L18.4219 26.2656C19.0938 26.9531 19.3594 27.0156 20.3281 26.7344C21.125 26.4844 22.1875 26.875 22.6875 27.5781C23.1719 28.25 23.1875 29.5156 22.7188 30.1406C22 31.125 22.0312 31.125 14.375 31.125C6.71875 31.125 6.75 31.125 6.03125 30.1406C5.5625 29.5156 5.57812 28.25 6.0625 27.5781C6.5625 26.875 7.625 26.4844 8.42188 26.7344C9.26562 26.9844 9.59375 26.9531 10.0156 26.6094C10.3594 26.3437 10.3906 26.1875 10.3906 25.0781C10.3906 24.0625 10.4531 23.7812 10.7344 23.375C11.375 22.4687 12.4688 22.1562 13.5 22.5937Z" fill="black"/>
<path d="M65.8124 20.1562C64.7031 20.5625 63.9374 21.2031 63.2968 22.2656C62.8124 23.0781 62.7187 23.1562 62.2343 23.1562C61.6874 23.1562 60.9218 23.4688 60.4374 23.8906C60.2812 24.0312 59.7656 24.1406 59.1093 24.1562C57.2343 24.2344 55.7499 25.1719 54.8749 26.8281C54.3124 27.875 54.2812 29.7344 54.7968 30.8281C55.2187 31.7656 56.2343 32.7812 57.1718 33.2188C57.8749 33.5469 58.0468 33.5469 65.6249 33.5469C73.2031 33.5469 73.3749 33.5469 74.0781 33.2188C75.0156 32.7812 76.0312 31.7656 76.4531 30.8281C76.9374 29.7812 76.9218 27.875 76.4218 26.9062C75.6718 25.4688 74.5156 24.5625 72.9687 24.2344C72.5312 24.1406 72.1406 23.9844 72.1093 23.8906C71.4531 21.4688 69.8437 20.0469 67.6562 19.9219C66.9374 19.8906 66.4062 19.9531 65.8124 20.1562ZM68.7187 22.8125C69.4531 23.3438 69.7343 24.1094 69.6093 25.1875C69.5156 26.0469 69.5312 26.1406 69.9062 26.5156C70.3437 26.9531 70.6874 27 71.5781 26.7344C72.3749 26.4844 73.4374 26.875 73.9374 27.5781C74.4218 28.25 74.4374 29.5156 73.9687 30.1406C73.2499 31.125 73.2812 31.125 65.6249 31.125C57.9687 31.125 57.9999 31.125 57.2812 30.1406C56.8124 29.5156 56.8281 28.25 57.3124 27.5781C57.8124 26.875 58.8749 26.4844 59.6718 26.7344C60.6406 27.0156 60.9062 26.9531 61.5781 26.2656L62.2187 25.625L63.2812 25.7188C64.2343 25.8125 64.3906 25.7969 64.6718 25.5156C64.8437 25.3438 65.0312 25.0156 65.0781 24.7969C65.1249 24.5781 65.1874 24.2344 65.2343 24.0469C65.3437 23.5156 65.9062 22.8438 66.4687 22.5938C67.1093 22.2969 68.1406 22.4062 68.7187 22.8125Z" fill="black"/>
<path d="M38.4375 22.0002C36.4375 22.7346 35 24.6565 35 26.6096C35 27.7659 36.1719 28.4065 37.0312 27.719C37.2656 27.5315 37.4219 27.1721 37.5156 26.594C37.75 25.094 38.5938 24.3284 40 24.3284C41.4062 24.3284 42.25 25.094 42.4844 26.594C42.7031 27.969 43.7656 28.469 44.6406 27.594C45 27.2346 45.0312 27.1096 44.9531 26.3127C44.7969 24.5784 43.6875 22.9846 42.1094 22.2346C41.0938 21.7502 39.4219 21.6409 38.4375 22.0002Z" fill="black"/>
<path d="M29.1406 25.8906C28.8906 26.125 28.75 26.4531 28.75 26.75C28.75 27.0469 28.8906 27.375 29.1406 27.6094C29.5 27.9844 29.625 28 31.25 28C32.875 28 33 27.9844 33.3594 27.6094C33.6094 27.375 33.75 27.0469 33.75 26.75C33.75 26.4531 33.6094 26.125 33.3594 25.8906C33 25.5156 32.875 25.5 31.25 25.5C29.625 25.5 29.5 25.5156 29.1406 25.8906Z" fill="black"/>
<path d="M46.6406 25.8906C46.3906 26.125 46.25 26.4531 46.25 26.75C46.25 27.0469 46.3906 27.375 46.6406 27.6094C47 27.9844 47.125 28 48.75 28C50.375 28 50.5 27.9844 50.8594 27.6094C51.1094 27.375 51.25 27.0469 51.25 26.75C51.25 26.4531 51.1094 26.125 50.8594 25.8906C50.5 25.5156 50.375 25.5 48.75 25.5C47.125 25.5 47 25.5156 46.6406 25.8906Z" fill="black"/>
<path d="M13.8281 36.2188C9.57812 36.625 9.35938 36.6719 8.95312 37.2031C8.79688 37.3906 8.76562 41.625 8.75 55.8281C8.75 74.0625 8.75 74.1875 9.0625 74.5312C9.23438 74.7188 9.54688 74.9062 9.73438 74.9375C9.92188 74.9844 11.7656 75.0469 13.8281 75.0938C24.6406 75.3281 33.875 77.125 38.625 79.8906C39.1875 80.2188 39.8125 80.5 40 80.5C40.1875 80.5 40.8125 80.2188 41.375 79.8906C46.125 77.125 55.3594 75.3281 66.1719 75.0938C68.2344 75.0469 70.0781 74.9844 70.2656 74.9375C70.4531 74.9062 70.7656 74.7188 70.9375 74.5312C71.25 74.1875 71.25 74.0625 71.25 55.8281C71.2344 36.4688 71.2656 37.1719 70.5469 36.7969C69.3594 36.1719 60.2656 35.9844 56.0938 36.5C51.2969 37.0781 46.7656 38.0781 42.5312 39.5L40 40.3438L37.6875 39.5781C33.4531 38.1406 28.625 37.0625 23.9844 36.5C22.0781 36.2812 15.2188 36.0781 13.8281 36.2188ZM23.6719 39.0156C27.9375 39.5156 32.875 40.6094 36.7969 41.9219L38.75 42.5625V59.8125C38.75 69.2969 38.7188 77.0625 38.6719 77.0625C38.625 77.0625 38.3125 76.9219 37.9844 76.7656C37.0625 76.2812 33.8594 75.2188 31.8594 74.7188C27.0312 73.5 18.75 72.5312 13.0938 72.5312H11.25V55.75V38.9688L12.4688 38.8594C13.125 38.8125 13.8438 38.7344 14.0625 38.7031C14.9688 38.5781 21.7969 38.7812 23.6719 39.0156ZM68.0156 38.875L68.75 38.9844V55.75V72.5312H66.9062C63.1719 72.5312 57.3594 73.0312 53.1406 73.7031C49 74.375 44.8906 75.4844 42.375 76.625C41.8281 76.8594 41.3438 77.0625 41.3125 77.0625C41.2812 77.0625 41.25 69.2969 41.25 59.8125V42.5625L43.4219 41.8438C48.4062 40.2188 53.7031 39.1719 59.2969 38.7188C60.375 38.6406 67.0938 38.75 68.0156 38.875Z" fill="black"/>
<path d="M14.2031 47.2031C13.6406 47.7656 13.625 48.3438 14.1406 48.8594C14.5 49.2344 14.5937 49.25 16.6719 49.25C22.0625 49.25 28.2187 50.0625 33.1406 51.4375C34.0781 51.6875 34.9844 51.9062 35.1562 51.9062C35.6406 51.9062 36.25 51.2188 36.25 50.6875C36.25 49.9062 35.8281 49.5938 34.0937 49.0938C29 47.6562 22.375 46.75 16.75 46.75H14.6562L14.2031 47.2031Z" fill="black"/>
<path d="M14.2344 53.4062C13.625 53.9219 13.5937 54.5625 14.1406 55.1094C14.5 55.4844 14.5937 55.5 16.5937 55.5C22.0781 55.5 28.2031 56.3125 33.1406 57.6875C34.0781 57.9375 34.9844 58.1562 35.1562 58.1562C35.6406 58.1562 36.25 57.4688 36.25 56.9375C36.25 56.1562 35.8281 55.8438 34.0937 55.3438C29.0156 53.9062 22.375 53 16.7656 53C14.7812 53 14.6875 53.0156 14.2344 53.4062Z" fill="black"/>
<path d="M14.2031 59.7031C13.6719 60.25 13.625 60.7656 14.0781 61.3438C14.3906 61.75 14.4063 61.75 16.5781 61.75C22.0313 61.75 28.2031 62.5625 33.1563 63.9375C34.0781 64.2031 34.9844 64.4062 35.1563 64.4062C35.6406 64.4062 36.25 63.7188 36.25 63.1875C36.25 62.4062 35.8281 62.0938 34.0938 61.5938C29 60.1562 22.375 59.25 16.75 59.25H14.6563L14.2031 59.7031Z" fill="black"/>
<path d="M14.2031 65.9531C13.6406 66.5156 13.625 67.0938 14.1406 67.6094C14.5 67.9844 14.5937 68 16.6719 68C22.0469 68 28.2344 68.8281 33.1562 70.1875C34.0781 70.4531 34.9844 70.6562 35.1562 70.6562C35.6406 70.6562 36.25 69.9688 36.25 69.4375C36.25 68.6562 35.8281 68.3438 34.0937 67.8438C29 66.4062 22.375 65.5 16.75 65.5H14.6562L14.2031 65.9531Z" fill="black"/>
<path d="M58.5156 46.9221C53.1094 47.3127 44.7344 49.0158 44.0312 49.8908C43.625 50.3596 43.6719 51.0627 44.1406 51.5158C44.625 52.0158 44.8125 52.0002 46.8437 51.4377C51.7812 50.0627 58 49.2502 63.4531 49.2502C65.4062 49.2502 65.5 49.2346 65.8594 48.8596C66.375 48.344 66.3594 47.7658 65.7969 47.2033L65.3437 46.7502L62.8594 46.7658C61.5 46.7815 59.5469 46.8596 58.5156 46.9221Z" fill="black"/>
<path d="M58.5156 53.1719C54.6094 53.4531 49.4844 54.3281 45.9062 55.3438C44.1719 55.8438 43.75 56.1562 43.75 56.9375C43.75 57.4688 44.3594 58.1562 44.8281 58.1562C45 58.1562 46.0469 57.9062 47.1406 57.6094C52.125 56.2656 58 55.5 63.4062 55.5C65.4062 55.5 65.5 55.4844 65.8594 55.1094C66.375 54.5938 66.3594 54.0156 65.7969 53.4531L65.3438 53L62.8594 53.0156C61.5 53.0312 59.5469 53.1094 58.5156 53.1719Z" fill="black"/>
<path d="M58.5156 59.4219C54.6094 59.7031 49.4844 60.5781 45.9062 61.5938C44.1719 62.0938 43.75 62.4062 43.75 63.1875C43.75 63.7188 44.3594 64.4062 44.8281 64.4062C45 64.4062 46.0469 64.1562 47.1406 63.8594C52.1562 62.5156 58 61.75 63.4688 61.75C65.5938 61.75 65.6094 61.75 65.9219 61.3438C66.375 60.7656 66.3281 60.25 65.7969 59.7031L65.3438 59.25L62.8594 59.2656C61.5 59.2812 59.5469 59.3594 58.5156 59.4219Z" fill="black"/>
<path d="M58.5156 65.6719C54.6094 65.9531 49.4844 66.8281 45.9062 67.8438C44.1719 68.3438 43.75 68.6562 43.75 69.4375C43.75 69.9688 44.3594 70.6562 44.8281 70.6562C45 70.6562 46.0469 70.4062 47.1406 70.1094C52.1562 68.7656 58 68 63.4688 68C65.5938 68 65.6094 68 65.9219 67.5938C66.375 67.0156 66.3281 66.5 65.7969 65.9531L65.3438 65.5L62.8594 65.5156C61.5 65.5312 59.5469 65.6094 58.5156 65.6719Z" fill="black"/>
</g>
<defs>
<clipPath id="clip0_690_593">
<rect width="80" height="80" fill="white" transform="translate(0 0.5)"/>
</clipPath>
</defs>
</svg>
